  0
SECTION
  2
HEADER
  9
$ACADVER
  1
AC1006
  9
$DWGCODEPAGE
  3
ansi_1252
  9
$INSBASE
 10
0.0
 20
0.0
 30
0.0
  9
$EXTMIN
 10
-468.321
 20
-173.1085
  9
$EXTMAX
 10
-113.7349
 20
63.3443
  9
$LIMMIN
 10
0.0
 20
0.0
  9
$LIMMAX
 10
12.0
 20
9.0
  9
$ORTHOMODE
 70
     0
  9
$REGENMODE
 70
     1
  9
$FILLMODE
 70
     1
  9
$QTEXTMODE
 70
     0
  9
$MIRRTEXT
 70
     1
  9
$DRAGMODE
 70
     2
  9
$LTSCALE
 40
1.0
  9
$OSMODE
 70
    37
  9
$ATTMODE
 70
     1
  9
$TEXTSIZE
 40
0.2
  9
$TRACEWID
 40
0.05
  9
$TEXTSTYLE
  7
STANDARD
  9
$CLAYER
  8
0
  9
$CELTYPE
  6
BYLAYER
  9
$CECOLOR
 62
   256
  9
$DIMSCALE
 40
1.0
  9
$DIMASZ
 40
0.18
  9
$DIMEXO
 40
0.0625
  9
$DIMDLI
 40
0.38
  9
$DIMRND
 40
0.0
  9
$DIMDLE
 40
0.0
  9
$DIMEXE
 40
0.18
  9
$DIMTP
 40
0.0
  9
$DIMTM
 40
0.0
  9
$DIMTXT
 40
0.18
  9
$DIMCEN
 40
0.09
  9
$DIMTSZ
 40
0.0
  9
$DIMTOL
 70
     0
  9
$DIMLIM
 70
     0
  9
$DIMTIH
 70
     1
  9
$DIMTOH
 70
     1
  9
$DIMSE1
 70
     0
  9
$DIMSE2
 70
     0
  9
$DIMTAD
 70
     0
  9
$DIMZIN
 70
     0
  9
$DIMBLK
  1

  9
$DIMASO
 70
     1
  9
$DIMSHO
 70
     1
  9
$DIMPOST
  1

  9
$DIMAPOST
  1

  9
$DIMALT
 70
     0
  9
$DIMALTD
 70
     2
  9
$DIMALTF
 40
25.4
  9
$DIMLFAC
 40
1.0
  9
$DIMTOFL
 70
     0
  9
$DIMTVP
 40
0.0
  9
$DIMTIX
 70
     0
  9
$DIMSOXD
 70
     0
  9
$DIMSAH
 70
     0
  9
$DIMBLK1
  1

  9
$DIMBLK2
  1

  9
$LUNITS
 70
     2
  9
$LUPREC
 70
     4
  9
$SKETCHINC
 40
0.1
  9
$FILLETRAD
 40
0.5
  9
$AUNITS
 70
     0
  9
$AUPREC
 70
     0
  9
$MENU
  1
.
  9
$ELEVATION
 40
0.0
  9
$THICKNESS
 40
0.0
  9
$LIMCHECK
 70
     0
  9
$CHAMFERA
 40
0.5
  9
$CHAMFERB
 40
0.5
  9
$SKPOLY
 70
     0
  9
$TDCREATE
 40
2456933.449182593
  9
$TDUPDATE
 40
2456933.449182604
  9
$TDINDWG
 40
0.0000000116
  9
$TDUSRTIMER
 40
0.0000000116
  9
$USRTIMER
 70
     1
  9
$ANGBASE
 50
0.0
  9
$ANGDIR
 70
     0
  9
$PDMODE
 70
     0
  9
$PDSIZE
 40
0.0
  9
$PLINEWID
 40
0.0
  9
$COORDS
 70
     1
  9
$SPLFRAME
 70
     0
  9
$SPLINETYPE
 70
     6
  9
$SPLINESEGS
 70
     8
  9
$ATTDIA
 70
     0
  9
$ATTREQ
 70
     1
  9
$HANDLING
 70
     1
  9
$HANDSEED
  5
4BD
  9
$SURFTAB1
 70
     6
  9
$SURFTAB2
 70
     6
  9
$SURFTYPE
 70
     6
  9
$SURFU
 70
     6
  9
$SURFV
 70
     6
  9
$UCSNAME
  2

  9
$UCSORG
 10
0.0
 20
0.0
 30
0.0
  9
$UCSXDIR
 10
1.0
 20
0.0
 30
0.0
  9
$UCSYDIR
 10
0.0
 20
1.0
 30
0.0
  9
$USERI1
 70
     0
  9
$USERI2
 70
     0
  9
$USERI3
 70
     0
  9
$USERI4
 70
     0
  9
$USERI5
 70
     0
  9
$USERR1
 40
0.0
  9
$USERR2
 40
0.0
  9
$USERR3
 40
0.0
  9
$USERR4
 40
0.0
  9
$USERR5
 40
0.0
  9
$WORLDVIEW
 70
     1
  0
ENDSEC
  0
SECTION
  2
TABLES
  0
TABLE
  2
VPORT
 70
     1
  0
VPORT
  2
*ACTIVE
 70
     0
 10
0.0
 20
0.0
 11
1.0
 21
1.0
 12
10.42990654205607
 22
4.5
 13
0.0
 23
0.0
 14
0.5
 24
0.5
 15
0.5
 25
0.5
 16
0.0
 26
0.0
 36
1.0
 17
0.0
 27
0.0
 37
0.0
 40
9.0
 41
1.972972972850329
 42
50.0
 43
0.0
 44
0.0
 50
0.0
 51
0.0
 71
     0
 72
   100
 73
     1
 74
     3
 75
     0
 76
     0
 77
     0
 78
     0
  0
ENDTAB
  0
TABLE
  2
LTYPE
 70
     1
  0
LTYPE
  2
CONTINUOUS
 70
     0
  3
Solid line
 72
    65
 73
     0
 40
0.0
  0
ENDTAB
  0
TABLE
  2
LAYER
 70
     2
  0
LAYER
  2
0
 70
     0
 62
     7
  6
CONTINUOUS
  0
LAYER
  2
LAYER_1
 70
     0
 62
     7
  6
CONTINUOUS
  0
ENDTAB
  0
TABLE
  2
STYLE
 70
     1
  0
STYLE
  2
STANDARD
 70
     0
 40
0.0
 41
1.0
 50
0.0
 71
     0
 42
0.2
  3
txt
  4

  0
ENDTAB
  0
TABLE
  2
VIEW
 70
     0
  0
ENDTAB
  0
TABLE
  2
UCS
 70
     0
  0
ENDTAB
  0
ENDSEC
  0
SECTION
  2
BLOCKS
  0
ENDSEC
  0
SECTION
  2
ENTITIES
  0
POLYLINE
  5
41
  8
LAYER_1
 62
   242
 66
     1
 10
0.0
 20
0.0
 30
0.0
 70
     1
  0
VERTEX
  5
78
  8
LAYER_1
 62
   242
 10
-205.4449
 20
-2.3819
 30
0.0
  0
VERTEX
  5
79
  8
LAYER_1
 62
   242
 10
-205.4449
 20
-12.3819
 30
0.0
  0
VERTEX
  5
7A
  8
LAYER_1
 62
   242
 10
-208.9449
 20
-12.3819
 30
0.0
  0
VERTEX
  5
7B
  8
LAYER_1
 62
   242
 10
-208.9449
 20
-2.3819
 30
0.0
  0
VERTEX
  5
7C
  8
LAYER_1
 62
   242
 10
-205.4449
 20
-2.3819
 30
0.0
  0
SEQEND
  5
7D
  8
LAYER_1
 62
   242
  0
POLYLINE
  5
42
  8
LAYER_1
 62
   242
 66
     1
 10
0.0
 20
0.0
 30
0.0
 70
     1
  0
VERTEX
  5
7E
  8
LAYER_1
 62
   242
 10
-205.6949
 20
39.1181
 30
0.0
  0
VERTEX
  5
7F
  8
LAYER_1
 62
   242
 10
-205.6949
 20
29.1181
 30
0.0
  0
VERTEX
  5
80
  8
LAYER_1
 62
   242
 10
-208.6949
 20
29.1181
 30
0.0
  0
VERTEX
  5
81
  8
LAYER_1
 62
   242
 10
-208.6949
 20
39.1181
 30
0.0
  0
VERTEX
  5
82
  8
LAYER_1
 62
   242
 10
-205.6949
 20
39.1181
 30
0.0
  0
SEQEND
  5
83
  8
LAYER_1
 62
   242
  0
POLYLINE
  5
43
  8
LAYER_1
 62
   242
 66
     1
 10
0.0
 20
0.0
 30
0.0
 70
     1
  0
VERTEX
  5
84
  8
LAYER_1
 62
   242
 10
-377.3439
 20
-2.3819
 30
0.0
  0
VERTEX
  5
85
  8
LAYER_1
 62
   242
 10
-377.3439
 20
-12.3819
 30
0.0
  0
VERTEX
  5
86
  8
LAYER_1
 62
   242
 10
-380.8439
 20
-12.3819
 30
0.0
  0
VERTEX
  5
87
  8
LAYER_1
 62
   242
 10
-380.8439
 20
-2.3819
 30
0.0
  0
VERTEX
  5
88
  8
LAYER_1
 62
   242
 10
-377.3439
 20
-2.3819
 30
0.0
  0
SEQEND
  5
89
  8
LAYER_1
 62
   242
  0
POLYLINE
  5
44
  8
LAYER_1
 62
   242
 66
     1
 10
0.0
 20
0.0
 30
0.0
 70
     1
  0
VERTEX
  5
8A
  8
LAYER_1
 62
   242
 10
-377.3439
 20
39.1181
 30
0.0
  0
VERTEX
  5
8B
  8
LAYER_1
 62
   242
 10
-377.3439
 20
29.1181
 30
0.0
  0
VERTEX
  5
8C
  8
LAYER_1
 62
   242
 10
-380.8439
 20
29.1181
 30
0.0
  0
VERTEX
  5
8D
  8
LAYER_1
 62
   242
 10
-380.8439
 20
39.1181
 30
0.0
  0
VERTEX
  5
8E
  8
LAYER_1
 62
   242
 10
-377.3439
 20
39.1181
 30
0.0
  0
SEQEND
  5
8F
  8
LAYER_1
 62
   242
  0
POLYLINE
  5
45
  8
LAYER_1
 62
   242
 66
     1
 10
0.0
 20
0.0
 30
0.0
 70
     1
  0
VERTEX
  5
90
  8
LAYER_1
 62
   242
 10
-243.2348
 20
51.6679
 30
0.0
  0
VERTEX
  5
91
  8
LAYER_1
 62
   242
 10
-243.5371
 20
51.6984
 30
0.0
  0
VERTEX
  5
92
  8
LAYER_1
 62
   242
 10
-243.8187
 20
51.7858
 30
0.0
  0
VERTEX
  5
93
  8
LAYER_1
 62
   242
 10
-244.0735
 20
51.9241
 30
0.0
  0
VERTEX
  5
94
  8
LAYER_1
 62
   242
 10
-244.2955
 20
52.1072
 30
0.0
  0
VERTEX
  5
95
  8
LAYER_1
 62
   242
 10
-244.4786
 20
52.3292
 30
0.0
  0
VERTEX
  5
96
  8
LAYER_1
 62
   242
 10
-244.6169
 20
52.584
 30
0.0
  0
VERTEX
  5
97
  8
LAYER_1
 62
   242
 10
-244.7043
 20
52.8656
 30
0.0
  0
VERTEX
  5
98
  8
LAYER_1
 62
   242
 10
-244.7348
 20
53.1679
 30
0.0
  0
VERTEX
  5
99
  8
LAYER_1
 62
   242
 10
-244.7043
 20
53.4702
 30
0.0
  0
VERTEX
  5
9A
  8
LAYER_1
 62
   242
 10
-244.6169
 20
53.7518
 30
0.0
  0
VERTEX
  5
9B
  8
LAYER_1
 62
   242
 10
-244.4786
 20
54.0066
 30
0.0
  0
VERTEX
  5
9C
  8
LAYER_1
 62
   242
 10
-244.2955
 20
54.2286
 30
0.0
  0
VERTEX
  5
9D
  8
LAYER_1
 62
   242
 10
-244.0735
 20
54.4117
 30
0.0
  0
VERTEX
  5
9E
  8
LAYER_1
 62
   242
 10
-243.8187
 20
54.55
 30
0.0
  0
VERTEX
  5
9F
  8
LAYER_1
 62
   242
 10
-243.5371
 20
54.6374
 30
0.0
  0
VERTEX
  5
A0
  8
LAYER_1
 62
   242
 10
-243.2348
 20
54.6679
 30
0.0
  0
VERTEX
  5
A1
  8
LAYER_1
 62
   242
 10
-242.9325
 20
54.6374
 30
0.0
  0
VERTEX
  5
A2
  8
LAYER_1
 62
   242
 10
-242.6509
 20
54.55
 30
0.0
  0
VERTEX
  5
A3
  8
LAYER_1
 62
   242
 10
-242.3961
 20
54.4117
 30
0.0
  0
VERTEX
  5
A4
  8
LAYER_1
 62
   242
 10
-242.1742
 20
54.2286
 30
0.0
  0
VERTEX
  5
A5
  8
LAYER_1
 62
   242
 10
-241.991
 20
54.0066
 30
0.0
  0
VERTEX
  5
A6
  8
LAYER_1
 62
   242
 10
-241.8527
 20
53.7518
 30
0.0
  0
VERTEX
  5
A7
  8
LAYER_1
 62
   242
 10
-241.7653
 20
53.4702
 30
0.0
  0
VERTEX
  5
A8
  8
LAYER_1
 62
   242
 10
-241.7348
 20
53.1679
 30
0.0
  0
VERTEX
  5
A9
  8
LAYER_1
 62
   242
 10
-241.7653
 20
52.8656
 30
0.0
  0
VERTEX
  5
AA
  8
LAYER_1
 62
   242
 10
-241.8527
 20
52.584
 30
0.0
  0
VERTEX
  5
AB
  8
LAYER_1
 62
   242
 10
-241.991
 20
52.3292
 30
0.0
  0
VERTEX
  5
AC
  8
LAYER_1
 62
   242
 10
-242.1742
 20
52.1072
 30
0.0
  0
VERTEX
  5
AD
  8
LAYER_1
 62
   242
 10
-242.3961
 20
51.9241
 30
0.0
  0
VERTEX
  5
AE
  8
LAYER_1
 62
   242
 10
-242.6509
 20
51.7858
 30
0.0
  0
VERTEX
  5
AF
  8
LAYER_1
 62
   242
 10
-242.9325
 20
51.6984
 30
0.0
  0
VERTEX
  5
B0
  8
LAYER_1
 62
   242
 10
-243.2348
 20
51.6679
 30
0.0
  0
SEQEND
  5
B1
  8
LAYER_1
 62
   242
  0
POLYLINE
  5
46
  8
LAYER_1
 62
   242
 66
     1
 10
0.0
 20
0.0
 30
0.0
 70
     1
  0
VERTEX
  5
B2
  8
LAYER_1
 62
   242
 10
-243.2348
 20
26.6679
 30
0.0
  0
VERTEX
  5
B3
  8
LAYER_1
 62
   242
 10
-243.5371
 20
26.6984
 30
0.0
  0
VERTEX
  5
B4
  8
LAYER_1
 62
   242
 10
-243.8187
 20
26.7858
 30
0.0
  0
VERTEX
  5
B5
  8
LAYER_1
 62
   242
 10
-244.0735
 20
26.9241
 30
0.0
  0
VERTEX
  5
B6
  8
LAYER_1
 62
   242
 10
-244.2955
 20
27.1072
 30
0.0
  0
VERTEX
  5
B7
  8
LAYER_1
 62
   242
 10
-244.4786
 20
27.3292
 30
0.0
  0
VERTEX
  5
B8
  8
LAYER_1
 62
   242
 10
-244.6169
 20
27.584
 30
0.0
  0
VERTEX
  5
B9
  8
LAYER_1
 62
   242
 10
-244.7043
 20
27.8656
 30
0.0
  0
VERTEX
  5
BA
  8
LAYER_1
 62
   242
 10
-244.7348
 20
28.1679
 30
0.0
  0
VERTEX
  5
BB
  8
LAYER_1
 62
   242
 10
-244.7043
 20
28.4702
 30
0.0
  0
VERTEX
  5
BC
  8
LAYER_1
 62
   242
 10
-244.6169
 20
28.7518
 30
0.0
  0
VERTEX
  5
BD
  8
LAYER_1
 62
   242
 10
-244.4786
 20
29.0066
 30
0.0
  0
VERTEX
  5
BE
  8
LAYER_1
 62
   242
 10
-244.2955
 20
29.2286
 30
0.0
  0
VERTEX
  5
BF
  8
LAYER_1
 62
   242
 10
-244.0735
 20
29.4117
 30
0.0
  0
VERTEX
  5
C0
  8
LAYER_1
 62
   242
 10
-243.8187
 20
29.55
 30
0.0
  0
VERTEX
  5
C1
  8
LAYER_1
 62
   242
 10
-243.5371
 20
29.6374
 30
0.0
  0
VERTEX
  5
C2
  8
LAYER_1
 62
   242
 10
-243.2348
 20
29.6679
 30
0.0
  0
VERTEX
  5
C3
  8
LAYER_1
 62
   242
 10
-242.9325
 20
29.6374
 30
0.0
  0
VERTEX
  5
C4
  8
LAYER_1
 62
   242
 10
-242.6509
 20
29.55
 30
0.0
  0
VERTEX
  5
C5
  8
LAYER_1
 62
   242
 10
-242.3961
 20
29.4117
 30
0.0
  0
VERTEX
  5
C6
  8
LAYER_1
 62
   242
 10
-242.1742
 20
29.2286
 30
0.0
  0
VERTEX
  5
C7
  8
LAYER_1
 62
   242
 10
-241.991
 20
29.0066
 30
0.0
  0
VERTEX
  5
C8
  8
LAYER_1
 62
   242
 10
-241.8527
 20
28.7518
 30
0.0
  0
VERTEX
  5
C9
  8
LAYER_1
 62
   242
 10
-241.7653
 20
28.4702
 30
0.0
  0
VERTEX
  5
CA
  8
LAYER_1
 62
   242
 10
-241.7348
 20
28.1679
 30
0.0
  0
VERTEX
  5
CB
  8
LAYER_1
 62
   242
 10
-241.7653
 20
27.8656
 30
0.0
  0
VERTEX
  5
CC
  8
LAYER_1
 62
   242
 10
-241.8527
 20
27.584
 30
0.0
  0
VERTEX
  5
CD
  8
LAYER_1
 62
   242
 10
-241.991
 20
27.3292
 30
0.0
  0
VERTEX
  5
CE
  8
LAYER_1
 62
   242
 10
-242.1742
 20
27.1072
 30
0.0
  0
VERTEX
  5
CF
  8
LAYER_1
 62
   242
 10
-242.3961
 20
26.9241
 30
0.0
  0
VERTEX
  5
D0
  8
LAYER_1
 62
   242
 10
-242.6509
 20
26.7858
 30
0.0
  0
VERTEX
  5
D1
  8
LAYER_1
 62
   242
 10
-242.9325
 20
26.6984
 30
0.0
  0
VERTEX
  5
D2
  8
LAYER_1
 62
   242
 10
-243.2348
 20
26.6679
 30
0.0
  0
SEQEND
  5
D3
  8
LAYER_1
 62
   242
  0
POLYLINE
  5
47
  8
LAYER_1
 62
   242
 66
     1
 10
0.0
 20
0.0
 30
0.0
 70
     1
  0
VERTEX
  5
D4
  8
LAYER_1
 62
   242
 10
-125.6446
 20
11.5079
 30
0.0
  0
VERTEX
  5
D5
  8
LAYER_1
 62
   242
 10
-135.6446
 20
11.5079
 30
0.0
  0
VERTEX
  5
D6
  8
LAYER_1
 62
   242
 10
-135.6446
 20
15.2279
 30
0.0
  0
VERTEX
  5
D7
  8
LAYER_1
 62
   242
 10
-125.6446
 20
15.2279
 30
0.0
  0
VERTEX
  5
D8
  8
LAYER_1
 62
   242
 10
-125.6446
 20
11.5079
 30
0.0
  0
SEQEND
  5
D9
  8
LAYER_1
 62
   242
  0
POLYLINE
  5
48
  8
LAYER_1
 62
   242
 66
     1
 10
0.0
 20
0.0
 30
0.0
 70
     1
  0
VERTEX
  5
DA
  8
LAYER_1
 62
   242
 10
-232.1951
 20
11.6179
 30
0.0
  0
VERTEX
  5
DB
  8
LAYER_1
 62
   242
 10
-252.1951
 20
11.6179
 30
0.0
  0
VERTEX
  5
DC
  8
LAYER_1
 62
   242
 10
-252.1951
 20
15.1179
 30
0.0
  0
VERTEX
  5
DD
  8
LAYER_1
 62
   242
 10
-232.1951
 20
15.1179
 30
0.0
  0
VERTEX
  5
DE
  8
LAYER_1
 62
   242
 10
-232.1951
 20
11.6179
 30
0.0
  0
SEQEND
  5
DF
  8
LAYER_1
 62
   242
  0
POLYLINE
  5
49
  8
LAYER_1
 62
   242
 66
     1
 10
0.0
 20
0.0
 30
0.0
 70
     1
  0
VERTEX
  5
E0
  8
LAYER_1
 62
   242
 10
-267.1951
 20
11.6179
 30
0.0
  0
VERTEX
  5
E1
  8
LAYER_1
 62
   242
 10
-287.1951
 20
11.6179
 30
0.0
  0
VERTEX
  5
E2
  8
LAYER_1
 62
   242
 10
-287.1951
 20
15.1179
 30
0.0
  0
VERTEX
  5
E3
  8
LAYER_1
 62
   242
 10
-267.1951
 20
15.1179
 30
0.0
  0
VERTEX
  5
E4
  8
LAYER_1
 62
   242
 10
-267.1951
 20
11.6179
 30
0.0
  0
SEQEND
  5
E5
  8
LAYER_1
 62
   242
  0
POLYLINE
  5
4A
  8
LAYER_1
 62
   242
 66
     1
 10
0.0
 20
0.0
 30
0.0
 70
     1
  0
VERTEX
  5
E6
  8
LAYER_1
 62
   242
 10
-299.0941
 20
11.6179
 30
0.0
  0
VERTEX
  5
E7
  8
LAYER_1
 62
   242
 10
-319.0941
 20
11.6179
 30
0.0
  0
VERTEX
  5
E8
  8
LAYER_1
 62
   242
 10
-319.0941
 20
15.118
 30
0.0
  0
VERTEX
  5
E9
  8
LAYER_1
 62
   242
 10
-299.0941
 20
15.118
 30
0.0
  0
VERTEX
  5
EA
  8
LAYER_1
 62
   242
 10
-299.0941
 20
11.6179
 30
0.0
  0
SEQEND
  5
EB
  8
LAYER_1
 62
   242
  0
POLYLINE
  5
4B
  8
LAYER_1
 62
   242
 66
     1
 10
0.0
 20
0.0
 30
0.0
 70
     1
  0
VERTEX
  5
EC
  8
LAYER_1
 62
   242
 10
-334.0941
 20
11.6179
 30
0.0
  0
VERTEX
  5
ED
  8
LAYER_1
 62
   242
 10
-354.0941
 20
11.6179
 30
0.0
  0
VERTEX
  5
EE
  8
LAYER_1
 62
   242
 10
-354.0941
 20
15.1179
 30
0.0
  0
VERTEX
  5
EF
  8
LAYER_1
 62
   242
 10
-334.0941
 20
15.1179
 30
0.0
  0
VERTEX
  5
F0
  8
LAYER_1
 62
   242
 10
-334.0941
 20
11.6179
 30
0.0
  0
SEQEND
  5
F1
  8
LAYER_1
 62
   242
  0
POLYLINE
  5
4C
  8
LAYER_1
 62
   242
 66
     1
 10
0.0
 20
0.0
 30
0.0
 70
     1
  0
VERTEX
  5
F2
  8
LAYER_1
 62
   242
 10
-450.6446
 20
11.7279
 30
0.0
  0
VERTEX
  5
F3
  8
LAYER_1
 62
   242
 10
-460.6446
 20
11.7279
 30
0.0
  0
VERTEX
  5
F4
  8
LAYER_1
 62
   242
 10
-460.6446
 20
15.2279
 30
0.0
  0
VERTEX
  5
F5
  8
LAYER_1
 62
   242
 10
-450.6446
 20
15.2279
 30
0.0
  0
VERTEX
  5
F6
  8
LAYER_1
 62
   242
 10
-450.6446
 20
11.7279
 30
0.0
  0
SEQEND
  5
F7
  8
LAYER_1
 62
   242
  0
POLYLINE
  5
4D
  8
LAYER_1
 62
   242
 66
     1
 10
0.0
 20
0.0
 30
0.0
 70
     1
  0
VERTEX
  5
F8
  8
LAYER_1
 62
   242
 10
-398.1446
 20
11.4748
 30
0.0
  0
VERTEX
  5
F9
  8
LAYER_1
 62
   242
 10
-398.5261
 20
11.5133
 30
0.0
  0
VERTEX
  5
FA
  8
LAYER_1
 62
   242
 10
-398.8815
 20
11.6236
 30
0.0
  0
VERTEX
  5
FB
  8
LAYER_1
 62
   242
 10
-399.203
 20
11.7981
 30
0.0
  0
VERTEX
  5
FC
  8
LAYER_1
 62
   242
 10
-399.4832
 20
12.0293
 30
0.0
  0
VERTEX
  5
FD
  8
LAYER_1
 62
   242
 10
-399.7144
 20
12.3094
 30
0.0
  0
VERTEX
  5
FE
  8
LAYER_1
 62
   242
 10
-399.8889
 20
12.631
 30
0.0
  0
VERTEX
  5
FF
  8
LAYER_1
 62
   242
 10
-399.9992
 20
12.9864
 30
0.0
  0
VERTEX
  5
100
  8
LAYER_1
 62
   242
 10
-400.0377
 20
13.3679
 30
0.0
  0
VERTEX
  5
101
  8
LAYER_1
 62
   242
 10
-399.9992
 20
13.7494
 30
0.0
  0
VERTEX
  5
102
  8
LAYER_1
 62
   242
 10
-399.8889
 20
14.1048
 30
0.0
  0
VERTEX
  5
103
  8
LAYER_1
 62
   242
 10
-399.7144
 20
14.4264
 30
0.0
  0
VERTEX
  5
104
  8
LAYER_1
 62
   242
 10
-399.4832
 20
14.7066
 30
0.0
  0
VERTEX
  5
105
  8
LAYER_1
 62
   242
 10
-399.203
 20
14.9377
 30
0.0
  0
VERTEX
  5
106
  8
LAYER_1
 62
   242
 10
-398.8815
 20
15.1122
 30
0.0
  0
VERTEX
  5
107
  8
LAYER_1
 62
   242
 10
-398.5261
 20
15.2225
 30
0.0
  0
VERTEX
  5
108
  8
LAYER_1
 62
   242
 10
-398.1446
 20
15.261
 30
0.0
  0
VERTEX
  5
109
  8
LAYER_1
 62
   242
 10
-397.7631
 20
15.2225
 30
0.0
  0
VERTEX
  5
10A
  8
LAYER_1
 62
   242
 10
-397.4077
 20
15.1122
 30
0.0
  0
VERTEX
  5
10B
  8
LAYER_1
 62
   242
 10
-397.0862
 20
14.9377
 30
0.0
  0
VERTEX
  5
10C
  8
LAYER_1
 62
   242
 10
-396.806
 20
14.7066
 30
0.0
  0
VERTEX
  5
10D
  8
LAYER_1
 62
   242
 10
-396.5748
 20
14.4264
 30
0.0
  0
VERTEX
  5
10E
  8
LAYER_1
 62
   242
 10
-396.4003
 20
14.1048
 30
0.0
  0
VERTEX
  5
10F
  8
LAYER_1
 62
   242
 10
-396.29
 20
13.7494
 30
0.0
  0
VERTEX
  5
110
  8
LAYER_1
 62
   242
 10
-396.2515
 20
13.3679
 30
0.0
  0
VERTEX
  5
111
  8
LAYER_1
 62
   242
 10
-396.29
 20
12.9864
 30
0.0
  0
VERTEX
  5
112
  8
LAYER_1
 62
   242
 10
-396.4003
 20
12.631
 30
0.0
  0
VERTEX
  5
113
  8
LAYER_1
 62
   242
 10
-396.5748
 20
12.3094
 30
0.0
  0
VERTEX
  5
114
  8
LAYER_1
 62
   242
 10
-396.806
 20
12.0293
 30
0.0
  0
VERTEX
  5
115
  8
LAYER_1
 62
   242
 10
-397.0862
 20
11.7981
 30
0.0
  0
VERTEX
  5
116
  8
LAYER_1
 62
   242
 10
-397.4077
 20
11.6236
 30
0.0
  0
VERTEX
  5
117
  8
LAYER_1
 62
   242
 10
-397.7631
 20
11.5133
 30
0.0
  0
VERTEX
  5
118
  8
LAYER_1
 62
   242
 10
-398.1446
 20
11.4748
 30
0.0
  0
SEQEND
  5
119
  8
LAYER_1
 62
   242
  0
POLYLINE
  5
4E
  8
LAYER_1
 62
   242
 66
     1
 10
0.0
 20
0.0
 30
0.0
 70
     1
  0
VERTEX
  5
11A
  8
LAYER_1
 62
   242
 10
-363.1446
 20
11.6242
 30
0.0
  0
VERTEX
  5
11B
  8
LAYER_1
 62
   242
 10
-363.496
 20
11.6596
 30
0.0
  0
VERTEX
  5
11C
  8
LAYER_1
 62
   242
 10
-363.8233
 20
11.7612
 30
0.0
  0
VERTEX
  5
11D
  8
LAYER_1
 62
   242
 10
-364.1195
 20
11.922
 30
0.0
  0
VERTEX
  5
11E
  8
LAYER_1
 62
   242
 10
-364.3776
 20
12.1349
 30
0.0
  0
VERTEX
  5
11F
  8
LAYER_1
 62
   242
 10
-364.5905
 20
12.3929
 30
0.0
  0
VERTEX
  5
120
  8
LAYER_1
 62
   242
 10
-364.7513
 20
12.6891
 30
0.0
  0
VERTEX
  5
121
  8
LAYER_1
 62
   242
 10
-364.8529
 20
13.0165
 30
0.0
  0
VERTEX
  5
122
  8
LAYER_1
 62
   242
 10
-364.8883
 20
13.3679
 30
0.0
  0
VERTEX
  5
123
  8
LAYER_1
 62
   242
 10
-364.8529
 20
13.7193
 30
0.0
  0
VERTEX
  5
124
  8
LAYER_1
 62
   242
 10
-364.7513
 20
14.0467
 30
0.0
  0
VERTEX
  5
125
  8
LAYER_1
 62
   242
 10
-364.5905
 20
14.3429
 30
0.0
  0
VERTEX
  5
126
  8
LAYER_1
 62
   242
 10
-364.3776
 20
14.6009
 30
0.0
  0
VERTEX
  5
127
  8
LAYER_1
 62
   242
 10
-364.1195
 20
14.8138
 30
0.0
  0
VERTEX
  5
128
  8
LAYER_1
 62
   242
 10
-363.8233
 20
14.9746
 30
0.0
  0
VERTEX
  5
129
  8
LAYER_1
 62
   242
 10
-363.496
 20
15.0762
 30
0.0
  0
VERTEX
  5
12A
  8
LAYER_1
 62
   242
 10
-363.1446
 20
15.1116
 30
0.0
  0
VERTEX
  5
12B
  8
LAYER_1
 62
   242
 10
-362.7932
 20
15.0762
 30
0.0
  0
VERTEX
  5
12C
  8
LAYER_1
 62
   242
 10
-362.4659
 20
14.9746
 30
0.0
  0
VERTEX
  5
12D
  8
LAYER_1
 62
   242
 10
-362.1697
 20
14.8138
 30
0.0
  0
VERTEX
  5
12E
  8
LAYER_1
 62
   242
 10
-361.9116
 20
14.6009
 30
0.0
  0
VERTEX
  5
12F
  8
LAYER_1
 62
   242
 10
-361.6987
 20
14.3429
 30
0.0
  0
VERTEX
  5
130
  8
LAYER_1
 62
   242
 10
-361.5379
 20
14.0467
 30
0.0
  0
VERTEX
  5
131
  8
LAYER_1
 62
   242
 10
-361.4363
 20
13.7193
 30
0.0
  0
VERTEX
  5
132
  8
LAYER_1
 62
   242
 10
-361.4009
 20
13.3679
 30
0.0
  0
VERTEX
  5
133
  8
LAYER_1
 62
   242
 10
-361.4363
 20
13.0165
 30
0.0
  0
VERTEX
  5
134
  8
LAYER_1
 62
   242
 10
-361.5379
 20
12.6891
 30
0.0
  0
VERTEX
  5
135
  8
LAYER_1
 62
   242
 10
-361.6987
 20
12.3929
 30
0.0
  0
VERTEX
  5
136
  8
LAYER_1
 62
   242
 10
-361.9116
 20
12.1349
 30
0.0
  0
VERTEX
  5
137
  8
LAYER_1
 62
   242
 10
-362.1697
 20
11.922
 30
0.0
  0
VERTEX
  5
138
  8
LAYER_1
 62
   242
 10
-362.4659
 20
11.7612
 30
0.0
  0
VERTEX
  5
139
  8
LAYER_1
 62
   242
 10
-362.7932
 20
11.6596
 30
0.0
  0
VERTEX
  5
13A
  8
LAYER_1
 62
   242
 10
-363.1446
 20
11.6242
 30
0.0
  0
SEQEND
  5
13B
  8
LAYER_1
 62
   242
  0
POLYLINE
  5
4F
  8
LAYER_1
 62
   242
 66
     1
 10
0.0
 20
0.0
 30
0.0
 70
     1
  0
VERTEX
  5
13C
  8
LAYER_1
 62
   242
 10
-328.1446
 20
11.7167
 30
0.0
  0
VERTEX
  5
13D
  8
LAYER_1
 62
   242
 10
-328.4975
 20
11.7523
 30
0.0
  0
VERTEX
  5
13E
  8
LAYER_1
 62
   242
 10
-328.8262
 20
11.8543
 30
0.0
  0
VERTEX
  5
13F
  8
LAYER_1
 62
   242
 10
-329.1237
 20
12.0158
 30
0.0
  0
VERTEX
  5
140
  8
LAYER_1
 62
   242
 10
-329.3829
 20
12.2296
 30
0.0
  0
VERTEX
  5
141
  8
LAYER_1
 62
   242
 10
-329.5967
 20
12.4888
 30
0.0
  0
VERTEX
  5
142
  8
LAYER_1
 62
   242
 10
-329.7582
 20
12.7862
 30
0.0
  0
VERTEX
  5
143
  8
LAYER_1
 62
   242
 10
-329.8602
 20
13.115
 30
0.0
  0
VERTEX
  5
144
  8
LAYER_1
 62
   242
 10
-329.8958
 20
13.4679
 30
0.0
  0
VERTEX
  5
145
  8
LAYER_1
 62
   242
 10
-329.8602
 20
13.8208
 30
0.0
  0
VERTEX
  5
146
  8
LAYER_1
 62
   242
 10
-329.7582
 20
14.1496
 30
0.0
  0
VERTEX
  5
147
  8
LAYER_1
 62
   242
 10
-329.5967
 20
14.447
 30
0.0
  0
VERTEX
  5
148
  8
LAYER_1
 62
   242
 10
-329.3829
 20
14.7062
 30
0.0
  0
VERTEX
  5
149
  8
LAYER_1
 62
   242
 10
-329.1237
 20
14.92
 30
0.0
  0
VERTEX
  5
14A
  8
LAYER_1
 62
   242
 10
-328.8262
 20
15.0815
 30
0.0
  0
VERTEX
  5
14B
  8
LAYER_1
 62
   242
 10
-328.4975
 20
15.1835
 30
0.0
  0
VERTEX
  5
14C
  8
LAYER_1
 62
   242
 10
-328.1446
 20
15.2191
 30
0.0
  0
VERTEX
  5
14D
  8
LAYER_1
 62
   242
 10
-327.7917
 20
15.1835
 30
0.0
  0
VERTEX
  5
14E
  8
LAYER_1
 62
   242
 10
-327.463
 20
15.0815
 30
0.0
  0
VERTEX
  5
14F
  8
LAYER_1
 62
   242
 10
-327.1655
 20
14.92
 30
0.0
  0
VERTEX
  5
150
  8
LAYER_1
 62
   242
 10
-326.9063
 20
14.7062
 30
0.0
  0
VERTEX
  5
151
  8
LAYER_1
 62
   242
 10
-326.6925
 20
14.447
 30
0.0
  0
VERTEX
  5
152
  8
LAYER_1
 62
   242
 10
-326.531
 20
14.1496
 30
0.0
  0
VERTEX
  5
153
  8
LAYER_1
 62
   242
 10
-326.429
 20
13.8208
 30
0.0
  0
VERTEX
  5
154
  8
LAYER_1
 62
   242
 10
-326.3934
 20
13.4679
 30
0.0
  0
VERTEX
  5
155
  8
LAYER_1
 62
   242
 10
-326.429
 20
13.115
 30
0.0
  0
VERTEX
  5
156
  8
LAYER_1
 62
   242
 10
-326.531
 20
12.7862
 30
0.0
  0
VERTEX
  5
157
  8
LAYER_1
 62
   242
 10
-326.6925
 20
12.4888
 30
0.0
  0
VERTEX
  5
158
  8
LAYER_1
 62
   242
 10
-326.9063
 20
12.2296
 30
0.0
  0
VERTEX
  5
159
  8
LAYER_1
 62
   242
 10
-327.1655
 20
12.0158
 30
0.0
  0
VERTEX
  5
15A
  8
LAYER_1
 62
   242
 10
-327.463
 20
11.8543
 30
0.0
  0
VERTEX
  5
15B
  8
LAYER_1
 62
   242
 10
-327.7917
 20
11.7523
 30
0.0
  0
VERTEX
  5
15C
  8
LAYER_1
 62
   242
 10
-328.1446
 20
11.7167
 30
0.0
  0
SEQEND
  5
15D
  8
LAYER_1
 62
   242
  0
POLYLINE
  5
50
  8
LAYER_1
 62
   242
 66
     1
 10
0.0
 20
0.0
 30
0.0
 70
     1
  0
VERTEX
  5
15E
  8
LAYER_1
 62
   242
 10
-258.1446
 20
11.8874
 30
0.0
  0
VERTEX
  5
15F
  8
LAYER_1
 62
   242
 10
-258.4833
 20
11.9215
 30
0.0
  0
VERTEX
  5
160
  8
LAYER_1
 62
   242
 10
-258.7987
 20
12.0195
 30
0.0
  0
VERTEX
  5
161
  8
LAYER_1
 62
   242
 10
-259.0842
 20
12.1744
 30
0.0
  0
VERTEX
  5
162
  8
LAYER_1
 62
   242
 10
-259.3329
 20
12.3796
 30
0.0
  0
VERTEX
  5
163
  8
LAYER_1
 62
   242
 10
-259.5381
 20
12.6283
 30
0.0
  0
VERTEX
  5
164
  8
LAYER_1
 62
   242
 10
-259.693
 20
12.9137
 30
0.0
  0
VERTEX
  5
165
  8
LAYER_1
 62
   242
 10
-259.791
 20
13.2292
 30
0.0
  0
VERTEX
  5
166
  8
LAYER_1
 62
   242
 10
-259.8251
 20
13.5679
 30
0.0
  0
VERTEX
  5
167
  8
LAYER_1
 62
   242
 10
-259.791
 20
13.9066
 30
0.0
  0
VERTEX
  5
168
  8
LAYER_1
 62
   242
 10
-259.693
 20
14.2221
 30
0.0
  0
VERTEX
  5
169
  8
LAYER_1
 62
   242
 10
-259.5381
 20
14.5075
 30
0.0
  0
VERTEX
  5
16A
  8
LAYER_1
 62
   242
 10
-259.3329
 20
14.7562
 30
0.0
  0
VERTEX
  5
16B
  8
LAYER_1
 62
   242
 10
-259.0842
 20
14.9614
 30
0.0
  0
VERTEX
  5
16C
  8
LAYER_1
 62
   242
 10
-258.7987
 20
15.1164
 30
0.0
  0
VERTEX
  5
16D
  8
LAYER_1
 62
   242
 10
-258.4833
 20
15.2143
 30
0.0
  0
VERTEX
  5
16E
  8
LAYER_1
 62
   242
 10
-258.1446
 20
15.2484
 30
0.0
  0
VERTEX
  5
16F
  8
LAYER_1
 62
   242
 10
-257.8059
 20
15.2143
 30
0.0
  0
VERTEX
  5
170
  8
LAYER_1
 62
   242
 10
-257.4905
 20
15.1164
 30
0.0
  0
VERTEX
  5
171
  8
LAYER_1
 62
   242
 10
-257.205
 20
14.9614
 30
0.0
  0
VERTEX
  5
172
  8
LAYER_1
 62
   242
 10
-256.9563
 20
14.7562
 30
0.0
  0
VERTEX
  5
173
  8
LAYER_1
 62
   242
 10
-256.7511
 20
14.5075
 30
0.0
  0
VERTEX
  5
174
  8
LAYER_1
 62
   242
 10
-256.5962
 20
14.2221
 30
0.0
  0
VERTEX
  5
175
  8
LAYER_1
 62
   242
 10
-256.4982
 20
13.9066
 30
0.0
  0
VERTEX
  5
176
  8
LAYER_1
 62
   242
 10
-256.4641
 20
13.5679
 30
0.0
  0
VERTEX
  5
177
  8
LAYER_1
 62
   242
 10
-256.4982
 20
13.2292
 30
0.0
  0
VERTEX
  5
178
  8
LAYER_1
 62
   242
 10
-256.5962
 20
12.9137
 30
0.0
  0
VERTEX
  5
179
  8
LAYER_1
 62
   242
 10
-256.7511
 20
12.6283
 30
0.0
  0
VERTEX
  5
17A
  8
LAYER_1
 62
   242
 10
-256.9563
 20
12.3796
 30
0.0
  0
VERTEX
  5
17B
  8
LAYER_1
 62
   242
 10
-257.205
 20
12.1744
 30
0.0
  0
VERTEX
  5
17C
  8
LAYER_1
 62
   242
 10
-257.4905
 20
12.0195
 30
0.0
  0
VERTEX
  5
17D
  8
LAYER_1
 62
   242
 10
-257.8059
 20
11.9215
 30
0.0
  0
VERTEX
  5
17E
  8
LAYER_1
 62
   242
 10
-258.1446
 20
11.8874
 30
0.0
  0
SEQEND
  5
17F
  8
LAYER_1
 62
   242
  0
POLYLINE
  5
51
  8
LAYER_1
 62
   242
 66
     1
 10
0.0
 20
0.0
 30
0.0
 70
     1
  0
VERTEX
  5
180
  8
LAYER_1
 62
   242
 10
-223.1446
 20
11.7079
 30
0.0
  0
VERTEX
  5
181
  8
LAYER_1
 62
   242
 10
-223.4993
 20
11.7437
 30
0.0
  0
VERTEX
  5
182
  8
LAYER_1
 62
   242
 10
-223.8297
 20
11.8462
 30
0.0
  0
VERTEX
  5
183
  8
LAYER_1
 62
   242
 10
-224.1286
 20
12.0085
 30
0.0
  0
VERTEX
  5
184
  8
LAYER_1
 62
   242
 10
-224.3891
 20
12.2234
 30
0.0
  0
VERTEX
  5
185
  8
LAYER_1
 62
   242
 10
-224.604
 20
12.4838
 30
0.0
  0
VERTEX
  5
186
  8
LAYER_1
 62
   242
 10
-224.7663
 20
12.7828
 30
0.0
  0
VERTEX
  5
187
  8
LAYER_1
 62
   242
 10
-224.8688
 20
13.1132
 30
0.0
  0
VERTEX
  5
188
  8
LAYER_1
 62
   242
 10
-224.9046
 20
13.4679
 30
0.0
  0
VERTEX
  5
189
  8
LAYER_1
 62
   242
 10
-224.8688
 20
13.8226
 30
0.0
  0
VERTEX
  5
18A
  8
LAYER_1
 62
   242
 10
-224.7663
 20
14.153
 30
0.0
  0
VERTEX
  5
18B
  8
LAYER_1
 62
   242
 10
-224.604
 20
14.452
 30
0.0
  0
VERTEX
  5
18C
  8
LAYER_1
 62
   242
 10
-224.3891
 20
14.7124
 30
0.0
  0
VERTEX
  5
18D
  8
LAYER_1
 62
   242
 10
-224.1286
 20
14.9273
 30
0.0
  0
VERTEX
  5
18E
  8
LAYER_1
 62
   242
 10
-223.8297
 20
15.0896
 30
0.0
  0
VERTEX
  5
18F
  8
LAYER_1
 62
   242
 10
-223.4993
 20
15.1921
 30
0.0
  0
VERTEX
  5
190
  8
LAYER_1
 62
   242
 10
-223.1446
 20
15.2279
 30
0.0
  0
VERTEX
  5
191
  8
LAYER_1
 62
   242
 10
-222.7899
 20
15.1921
 30
0.0
  0
VERTEX
  5
192
  8
LAYER_1
 62
   242
 10
-222.4595
 20
15.0896
 30
0.0
  0
VERTEX
  5
193
  8
LAYER_1
 62
   242
 10
-222.1606
 20
14.9273
 30
0.0
  0
VERTEX
  5
194
  8
LAYER_1
 62
   242
 10
-221.9001
 20
14.7124
 30
0.0
  0
VERTEX
  5
195
  8
LAYER_1
 62
   242
 10
-221.6852
 20
14.452
 30
0.0
  0
VERTEX
  5
196
  8
LAYER_1
 62
   242
 10
-221.5229
 20
14.153
 30
0.0
  0
VERTEX
  5
197
  8
LAYER_1
 62
   242
 10
-221.4204
 20
13.8226
 30
0.0
  0
VERTEX
  5
198
  8
LAYER_1
 62
   242
 10
-221.3846
 20
13.4679
 30
0.0
  0
VERTEX
  5
199
  8
LAYER_1
 62
   242
 10
-221.4204
 20
13.1132
 30
0.0
  0
VERTEX
  5
19A
  8
LAYER_1
 62
   242
 10
-221.5229
 20
12.7828
 30
0.0
  0
VERTEX
  5
19B
  8
LAYER_1
 62
   242
 10
-221.6852
 20
12.4838
 30
0.0
  0
VERTEX
  5
19C
  8
LAYER_1
 62
   242
 10
-221.9001
 20
12.2234
 30
0.0
  0
VERTEX
  5
19D
  8
LAYER_1
 62
   242
 10
-222.1606
 20
12.0085
 30
0.0
  0
VERTEX
  5
19E
  8
LAYER_1
 62
   242
 10
-222.4595
 20
11.8462
 30
0.0
  0
VERTEX
  5
19F
  8
LAYER_1
 62
   242
 10
-222.7899
 20
11.7437
 30
0.0
  0
VERTEX
  5
1A0
  8
LAYER_1
 62
   242
 10
-223.1446
 20
11.7079
 30
0.0
  0
SEQEND
  5
1A1
  8
LAYER_1
 62
   242
  0
POLYLINE
  5
52
  8
LAYER_1
 62
   242
 66
     1
 10
0.0
 20
0.0
 30
0.0
 70
     1
  0
VERTEX
  5
1A2
  8
LAYER_1
 62
   242
 10
-188.1446
 20
11.6868
 30
0.0
  0
VERTEX
  5
1A3
  8
LAYER_1
 62
   242
 10
-188.5035
 20
11.723
 30
0.0
  0
VERTEX
  5
1A4
  8
LAYER_1
 62
   242
 10
-188.8379
 20
11.8268
 30
0.0
  0
VERTEX
  5
1A5
  8
LAYER_1
 62
   242
 10
-189.1404
 20
11.991
 30
0.0
  0
VERTEX
  5
1A6
  8
LAYER_1
 62
   242
 10
-189.404
 20
12.2084
 30
0.0
  0
VERTEX
  5
1A7
  8
LAYER_1
 62
   242
 10
-189.6215
 20
12.472
 30
0.0
  0
VERTEX
  5
1A8
  8
LAYER_1
 62
   242
 10
-189.7857
 20
12.7746
 30
0.0
  0
VERTEX
  5
1A9
  8
LAYER_1
 62
   242
 10
-189.8895
 20
13.1089
 30
0.0
  0
VERTEX
  5
1AA
  8
LAYER_1
 62
   242
 10
-189.9257
 20
13.4679
 30
0.0
  0
VERTEX
  5
1AB
  8
LAYER_1
 62
   242
 10
-189.8895
 20
13.8269
 30
0.0
  0
VERTEX
  5
1AC
  8
LAYER_1
 62
   242
 10
-189.7857
 20
14.1612
 30
0.0
  0
VERTEX
  5
1AD
  8
LAYER_1
 62
   242
 10
-189.6215
 20
14.4638
 30
0.0
  0
VERTEX
  5
1AE
  8
LAYER_1
 62
   242
 10
-189.404
 20
14.7274
 30
0.0
  0
VERTEX
  5
1AF
  8
LAYER_1
 62
   242
 10
-189.1404
 20
14.9448
 30
0.0
  0
VERTEX
  5
1B0
  8
LAYER_1
 62
   242
 10
-188.8379
 20
15.1091
 30
0.0
  0
VERTEX
  5
1B1
  8
LAYER_1
 62
   242
 10
-188.5035
 20
15.2128
 30
0.0
  0
VERTEX
  5
1B2
  8
LAYER_1
 62
   242
 10
-188.1446
 20
15.249
 30
0.0
  0
VERTEX
  5
1B3
  8
LAYER_1
 62
   242
 10
-187.7857
 20
15.2128
 30
0.0
  0
VERTEX
  5
1B4
  8
LAYER_1
 62
   242
 10
-187.4513
 20
15.1091
 30
0.0
  0
VERTEX
  5
1B5
  8
LAYER_1
 62
   242
 10
-187.1488
 20
14.9448
 30
0.0
  0
VERTEX
  5
1B6
  8
LAYER_1
 62
   242
 10
-186.8852
 20
14.7274
 30
0.0
  0
VERTEX
  5
1B7
  8
LAYER_1
 62
   242
 10
-186.6677
 20
14.4638
 30
0.0
  0
VERTEX
  5
1B8
  8
LAYER_1
 62
   242
 10
-186.5035
 20
14.1612
 30
0.0
  0
VERTEX
  5
1B9
  8
LAYER_1
 62
   242
 10
-186.3997
 20
13.8269
 30
0.0
  0
VERTEX
  5
1BA
  8
LAYER_1
 62
   242
 10
-186.3635
 20
13.4679
 30
0.0
  0
VERTEX
  5
1BB
  8
LAYER_1
 62
   242
 10
-186.3997
 20
13.1089
 30
0.0
  0
VERTEX
  5
1BC
  8
LAYER_1
 62
   242
 10
-186.5035
 20
12.7746
 30
0.0
  0
VERTEX
  5
1BD
  8
LAYER_1
 62
   242
 10
-186.6677
 20
12.472
 30
0.0
  0
VERTEX
  5
1BE
  8
LAYER_1
 62
   242
 10
-186.8852
 20
12.2084
 30
0.0
  0
VERTEX
  5
1BF
  8
LAYER_1
 62
   242
 10
-187.1488
 20
11.991
 30
0.0
  0
VERTEX
  5
1C0
  8
LAYER_1
 62
   242
 10
-187.4513
 20
11.8268
 30
0.0
  0
VERTEX
  5
1C1
  8
LAYER_1
 62
   242
 10
-187.7857
 20
11.723
 30
0.0
  0
VERTEX
  5
1C2
  8
LAYER_1
 62
   242
 10
-188.1446
 20
11.6868
 30
0.0
  0
SEQEND
  5
1C3
  8
LAYER_1
 62
   242
  0
POLYLINE
  5
53
  8
LAYER_1
 62
   242
 66
     1
 10
0.0
 20
0.0
 30
0.0
  0
VERTEX
  5
1C4
  8
LAYER_1
 62
   242
 10
-288.3851
 20
43.3679
 30
0.0
  0
VERTEX
  5
1C5
  8
LAYER_1
 62
   242
 10
-288.3851
 20
57.971
 30
0.0
  0
VERTEX
  5
1C6
  8
LAYER_1
 62
   242
 10
-288.279
 20
59.0149
 30
0.0
  0
VERTEX
  5
1C7
  8
LAYER_1
 62
   242
 10
-287.975
 20
59.9888
 30
0.0
  0
VERTEX
  5
1C8
  8
LAYER_1
 62
   242
 10
-287.4944
 20
60.8714
 30
0.0
  0
VERTEX
  5
1C9
  8
LAYER_1
 62
   242
 10
-286.8585
 20
61.6413
 30
0.0
  0
VERTEX
  5
1CA
  8
LAYER_1
 62
   242
 10
-286.0886
 20
62.2772
 30
0.0
  0
VERTEX
  5
1CB
  8
LAYER_1
 62
   242
 10
-285.2061
 20
62.7578
 30
0.0
  0
VERTEX
  5
1CC
  8
LAYER_1
 62
   242
 10
-284.2321
 20
63.0618
 30
0.0
  0
VERTEX
  5
1CD
  8
LAYER_1
 62
   242
 10
-283.1882
 20
63.1679
 30
0.0
  0
VERTEX
  5
1CE
  8
LAYER_1
 62
   242
 10
-221.2814
 20
63.1679
 30
0.0
  0
VERTEX
  5
1CF
  8
LAYER_1
 62
   242
 10
-220.2375
 20
63.0618
 30
0.0
  0
VERTEX
  5
1D0
  8
LAYER_1
 62
   242
 10
-219.2636
 20
62.7578
 30
0.0
  0
VERTEX
  5
1D1
  8
LAYER_1
 62
   242
 10
-218.3811
 20
62.2772
 30
0.0
  0
VERTEX
  5
1D2
  8
LAYER_1
 62
   242
 10
-217.6112
 20
61.6413
 30
0.0
  0
VERTEX
  5
1D3
  8
LAYER_1
 62
   242
 10
-216.9752
 20
60.8714
 30
0.0
  0
VERTEX
  5
1D4
  8
LAYER_1
 62
   242
 10
-216.4946
 20
59.9889
 30
0.0
  0
VERTEX
  5
1D5
  8
LAYER_1
 62
   242
 10
-216.1906
 20
59.0149
 30
0.0
  0
VERTEX
  5
1D6
  8
LAYER_1
 62
   242
 10
-216.0845
 20
57.971
 30
0.0
  0
VERTEX
  5
1D7
  8
LAYER_1
 62
   242
 10
-216.0845
 20
43.3679
 30
0.0
  0
SEQEND
  5
1D8
  8
LAYER_1
 62
   242
  0
POLYLINE
  5
54
  8
LAYER_1
 62
   242
 66
     1
 10
0.0
 20
0.0
 30
0.0
  0
VERTEX
  5
1D9
  8
LAYER_1
 62
   242
 10
-288.3851
 20
43.3679
 30
0.0
  0
VERTEX
  5
1DA
  8
LAYER_1
 62
   242
 10
-455.2242
 20
43.3679
 30
0.0
  0
VERTEX
  5
1DB
  8
LAYER_1
 62
   242
 10
-457.8197
 20
43.1041
 30
0.0
  0
VERTEX
  5
1DC
  8
LAYER_1
 62
   242
 10
-460.241
 20
42.3482
 30
0.0
  0
VERTEX
  5
1DD
  8
LAYER_1
 62
   242
 10
-462.4352
 20
41.1531
 30
0.0
  0
VERTEX
  5
1DE
  8
LAYER_1
 62
   242
 10
-464.3493
 20
39.5719
 30
0.0
  0
VERTEX
  5
1DF
  8
LAYER_1
 62
   242
 10
-465.9302
 20
37.6577
 30
0.0
  0
VERTEX
  5
1E0
  8
LAYER_1
 62
   242
 10
-467.1251
 20
35.4637
 30
0.0
  0
VERTEX
  5
1E1
  8
LAYER_1
 62
   242
 10
-467.8809
 20
33.0427
 30
0.0
  0
VERTEX
  5
1E2
  8
LAYER_1
 62
   242
 10
-468.1446
 20
30.4479
 30
0.0
  0
VERTEX
  5
1E3
  8
LAYER_1
 62
   242
 10
-468.1446
 20
-3.7121
 30
0.0
  0
VERTEX
  5
1E4
  8
LAYER_1
 62
   242
 10
-467.8809
 20
-6.3069
 30
0.0
  0
VERTEX
  5
1E5
  8
LAYER_1
 62
   242
 10
-467.1251
 20
-8.7279
 30
0.0
  0
VERTEX
  5
1E6
  8
LAYER_1
 62
   242
 10
-465.9302
 20
-10.9219
 30
0.0
  0
VERTEX
  5
1E7
  8
LAYER_1
 62
   242
 10
-464.3493
 20
-12.8361
 30
0.0
  0
VERTEX
  5
1E8
  8
LAYER_1
 62
   242
 10
-462.4352
 20
-14.4173
 30
0.0
  0
VERTEX
  5
1E9
  8
LAYER_1
 62
   242
 10
-460.241
 20
-15.6124
 30
0.0
  0
VERTEX
  5
1EA
  8
LAYER_1
 62
   242
 10
-457.8197
 20
-16.3683
 30
0.0
  0
VERTEX
  5
1EB
  8
LAYER_1
 62
   242
 10
-455.2242
 20
-16.6321
 30
0.0
  0
VERTEX
  5
1EC
  8
LAYER_1
 62
   242
 10
-131.065
 20
-16.6321
 30
0.0
  0
VERTEX
  5
1ED
  8
LAYER_1
 62
   242
 10
-128.4695
 20
-16.3683
 30
0.0
  0
VERTEX
  5
1EE
  8
LAYER_1
 62
   242
 10
-126.0482
 20
-15.6124
 30
0.0
  0
VERTEX
  5
1EF
  8
LAYER_1
 62
   242
 10
-123.854
 20
-14.4173
 30
0.0
  0
VERTEX
  5
1F0
  8
LAYER_1
 62
   242
 10
-121.9399
 20
-12.8361
 30
0.0
  0
VERTEX
  5
1F1
  8
LAYER_1
 62
   242
 10
-120.359
 20
-10.9219
 30
0.0
  0
VERTEX
  5
1F2
  8
LAYER_1
 62
   242
 10
-119.1641
 20
-8.7279
 30
0.0
  0
VERTEX
  5
1F3
  8
LAYER_1
 62
   242
 10
-118.4083
 20
-6.3069
 30
0.0
  0
VERTEX
  5
1F4
  8
LAYER_1
 62
   242
 10
-118.1446
 20
-3.7121
 30
0.0
  0
VERTEX
  5
1F5
  8
LAYER_1
 62
   242
 10
-118.1446
 20
30.4479
 30
0.0
  0
VERTEX
  5
1F6
  8
LAYER_1
 62
   242
 10
-118.4083
 20
33.0427
 30
0.0
  0
VERTEX
  5
1F7
  8
LAYER_1
 62
   242
 10
-119.1641
 20
35.4636
 30
0.0
  0
VERTEX
  5
1F8
  8
LAYER_1
 62
   242
 10
-120.359
 20
37.6577
 30
0.0
  0
VERTEX
  5
1F9
  8
LAYER_1
 62
   242
 10
-121.9399
 20
39.5719
 30
0.0
  0
VERTEX
  5
1FA
  8
LAYER_1
 62
   242
 10
-123.854
 20
41.153
 30
0.0
  0
VERTEX
  5
1FB
  8
LAYER_1
 62
   242
 10
-126.0482
 20
42.3481
 30
0.0
  0
VERTEX
  5
1FC
  8
LAYER_1
 62
   242
 10
-128.4695
 20
43.1041
 30
0.0
  0
VERTEX
  5
1FD
  8
LAYER_1
 62
   242
 10
-131.065
 20
43.3679
 30
0.0
  0
VERTEX
  5
1FE
  8
LAYER_1
 62
   242
 10
-216.0845
 20
43.3679
 30
0.0
  0
SEQEND
  5
1FF
  8
LAYER_1
 62
   242
  0
POLYLINE
  5
55
  8
LAYER_1
 62
   242
 66
     1
 10
0.0
 20
0.0
 30
0.0
  0
VERTEX
  5
200
  8
LAYER_1
 62
   242
 10
-421.6446
 20
10.8679
 30
0.0
  0
VERTEX
  5
201
  8
LAYER_1
 62
   242
 10
-424.5468
 20
10.8679
 30
0.0
  0
SEQEND
  5
202
  8
LAYER_1
 62
   242
  0
POLYLINE
  5
56
  8
LAYER_1
 62
   242
 66
     1
 10
0.0
 20
0.0
 30
0.0
  0
VERTEX
  5
203
  8
LAYER_1
 62
   242
 10
-421.6446
 20
15.8679
 30
0.0
  0
VERTEX
  5
204
  8
LAYER_1
 62
   242
 10
-421.1408
 20
15.8171
 30
0.0
  0
VERTEX
  5
205
  8
LAYER_1
 62
   242
 10
-420.6715
 20
15.6714
 30
0.0
  0
VERTEX
  5
206
  8
LAYER_1
 62
   242
 10
-420.2468
 20
15.4409
 30
0.0
  0
VERTEX
  5
207
  8
LAYER_1
 62
   242
 10
-419.8768
 20
15.1357
 30
0.0
  0
VERTEX
  5
208
  8
LAYER_1
 62
   242
 10
-419.5716
 20
14.7657
 30
0.0
  0
VERTEX
  5
209
  8
LAYER_1
 62
   242
 10
-419.3411
 20
14.341
 30
0.0
  0
VERTEX
  5
20A
  8
LAYER_1
 62
   242
 10
-419.1954
 20
13.8717
 30
0.0
  0
VERTEX
  5
20B
  8
LAYER_1
 62
   242
 10
-419.1446
 20
13.3679
 30
0.0
  0
VERTEX
  5
20C
  8
LAYER_1
 62
   242
 10
-419.1954
 20
12.8641
 30
0.0
  0
VERTEX
  5
20D
  8
LAYER_1
 62
   242
 10
-419.3411
 20
12.3948
 30
0.0
  0
VERTEX
  5
20E
  8
LAYER_1
 62
   242
 10
-419.5716
 20
11.9701
 30
0.0
  0
VERTEX
  5
20F
  8
LAYER_1
 62
   242
 10
-419.8768
 20
11.6001
 30
0.0
  0
VERTEX
  5
210
  8
LAYER_1
 62
   242
 10
-420.2468
 20
11.2949
 30
0.0
  0
VERTEX
  5
211
  8
LAYER_1
 62
   242
 10
-420.6715
 20
11.0644
 30
0.0
  0
VERTEX
  5
212
  8
LAYER_1
 62
   242
 10
-421.1408
 20
10.9187
 30
0.0
  0
VERTEX
  5
213
  8
LAYER_1
 62
   242
 10
-421.6446
 20
10.8679
 30
0.0
  0
SEQEND
  5
214
  8
LAYER_1
 62
   242
  0
POLYLINE
  5
57
  8
LAYER_1
 62
   242
 66
     1
 10
0.0
 20
0.0
 30
0.0
  0
VERTEX
  5
215
  8
LAYER_1
 62
   242
 10
-421.6446
 20
15.8679
 30
0.0
  0
VERTEX
  5
216
  8
LAYER_1
 62
   242
 10
-424.4693
 20
15.8679
 30
0.0
  0
SEQEND
  5
217
  8
LAYER_1
 62
   242
  0
POLYLINE
  5
58
  8
LAYER_1
 62
   242
 66
     1
 10
0.0
 20
0.0
 30
0.0
  0
VERTEX
  5
218
  8
LAYER_1
 62
   242
 10
-424.4817
 20
10.8596
 30
0.0
  0
VERTEX
  5
219
  8
LAYER_1
 62
   242
 10
-425.0243
 20
9.3738
 30
0.0
  0
VERTEX
  5
21A
  8
LAYER_1
 62
   242
 10
-425.7882
 20
8.0253
 30
0.0
  0
VERTEX
  5
21B
  8
LAYER_1
 62
   242
 10
-426.7489
 20
6.833
 30
0.0
  0
VERTEX
  5
21C
  8
LAYER_1
 62
   242
 10
-427.8817
 20
5.8155
 30
0.0
  0
VERTEX
  5
21D
  8
LAYER_1
 62
   242
 10
-429.1622
 20
4.9915
 30
0.0
  0
VERTEX
  5
21E
  8
LAYER_1
 62
   242
 10
-430.5659
 20
4.3797
 30
0.0
  0
VERTEX
  5
21F
  8
LAYER_1
 62
   242
 10
-432.0682
 20
3.999
 30
0.0
  0
VERTEX
  5
220
  8
LAYER_1
 62
   242
 10
-433.6446
 20
3.8679
 30
0.0
  0
VERTEX
  5
221
  8
LAYER_1
 62
   242
 10
-435.5592
 20
4.0609
 30
0.0
  0
VERTEX
  5
222
  8
LAYER_1
 62
   242
 10
-437.3424
 20
4.6145
 30
0.0
  0
VERTEX
  5
223
  8
LAYER_1
 62
   242
 10
-438.9561
 20
5.4904
 30
0.0
  0
VERTEX
  5
224
  8
LAYER_1
 62
   242
 10
-440.3621
 20
6.6504
 30
0.0
  0
VERTEX
  5
225
  8
LAYER_1
 62
   242
 10
-441.5221
 20
8.0564
 30
0.0
  0
VERTEX
  5
226
  8
LAYER_1
 62
   242
 10
-442.398
 20
9.6701
 30
0.0
  0
VERTEX
  5
227
  8
LAYER_1
 62
   242
 10
-442.9516
 20
11.4533
 30
0.0
  0
VERTEX
  5
228
  8
LAYER_1
 62
   242
 10
-443.1446
 20
13.3679
 30
0.0
  0
VERTEX
  5
229
  8
LAYER_1
 62
   242
 10
-442.9516
 20
15.2825
 30
0.0
  0
VERTEX
  5
22A
  8
LAYER_1
 62
   242
 10
-442.398
 20
17.0657
 30
0.0
  0
VERTEX
  5
22B
  8
LAYER_1
 62
   242
 10
-441.5221
 20
18.6794
 30
0.0
  0
VERTEX
  5
22C
  8
LAYER_1
 62
   242
 10
-440.3621
 20
20.0854
 30
0.0
  0
VERTEX
  5
22D
  8
LAYER_1
 62
   242
 10
-438.9561
 20
21.2454
 30
0.0
  0
VERTEX
  5
22E
  8
LAYER_1
 62
   242
 10
-437.3424
 20
22.1213
 30
0.0
  0
VERTEX
  5
22F
  8
LAYER_1
 62
   242
 10
-435.5592
 20
22.6749
 30
0.0
  0
VERTEX
  5
230
  8
LAYER_1
 62
   242
 10
-433.6446
 20
22.8679
 30
0.0
  0
VERTEX
  5
231
  8
LAYER_1
 62
   242
 10
-432.062
 20
22.7358
 30
0.0
  0
VERTEX
  5
232
  8
LAYER_1
 62
   242
 10
-430.5544
 20
22.3521
 30
0.0
  0
VERTEX
  5
233
  8
LAYER_1
 62
   242
 10
-429.1465
 20
21.7359
 30
0.0
  0
VERTEX
  5
234
  8
LAYER_1
 62
   242
 10
-427.863
 20
20.906
 30
0.0
  0
VERTEX
  5
235
  8
LAYER_1
 62
   242
 10
-426.7289
 20
19.8816
 30
0.0
  0
VERTEX
  5
236
  8
LAYER_1
 62
   242
 10
-425.7687
 20
18.6816
 30
0.0
  0
VERTEX
  5
237
  8
LAYER_1
 62
   242
 10
-425.0073
 20
17.325
 30
0.0
  0
VERTEX
  5
238
  8
LAYER_1
 62
   242
 10
-424.4694
 20
15.8307
 30
0.0
  0
SEQEND
  5
239
  8
LAYER_1
 62
   242
  0
POLYLINE
  5
59
  8
LAYER_1
 62
   242
 66
     1
 10
0.0
 20
0.0
 30
0.0
  0
VERTEX
  5
23A
  8
LAYER_1
 62
   242
 10
-164.6446
 20
15.8679
 30
0.0
  0
VERTEX
  5
23B
  8
LAYER_1
 62
   242
 10
-161.7424
 20
15.8679
 30
0.0
  0
SEQEND
  5
23C
  8
LAYER_1
 62
   242
  0
POLYLINE
  5
5A
  8
LAYER_1
 62
   242
 66
     1
 10
0.0
 20
0.0
 30
0.0
  0
VERTEX
  5
23D
  8
LAYER_1
 62
   242
 10
-164.6446
 20
10.8679
 30
0.0
  0
VERTEX
  5
23E
  8
LAYER_1
 62
   242
 10
-165.1484
 20
10.9187
 30
0.0
  0
VERTEX
  5
23F
  8
LAYER_1
 62
   242
 10
-165.6177
 20
11.0644
 30
0.0
  0
VERTEX
  5
240
  8
LAYER_1
 62
   242
 10
-166.0424
 20
11.2949
 30
0.0
  0
VERTEX
  5
241
  8
LAYER_1
 62
   242
 10
-166.4124
 20
11.6001
 30
0.0
  0
VERTEX
  5
242
  8
LAYER_1
 62
   242
 10
-166.7176
 20
11.9701
 30
0.0
  0
VERTEX
  5
243
  8
LAYER_1
 62
   242
 10
-166.9481
 20
12.3948
 30
0.0
  0
VERTEX
  5
244
  8
LAYER_1
 62
   242
 10
-167.0938
 20
12.8641
 30
0.0
  0
VERTEX
  5
245
  8
LAYER_1
 62
   242
 10
-167.1446
 20
13.3679
 30
0.0
  0
VERTEX
  5
246
  8
LAYER_1
 62
   242
 10
-167.0938
 20
13.8717
 30
0.0
  0
VERTEX
  5
247
  8
LAYER_1
 62
   242
 10
-166.9481
 20
14.341
 30
0.0
  0
VERTEX
  5
248
  8
LAYER_1
 62
   242
 10
-166.7176
 20
14.7657
 30
0.0
  0
VERTEX
  5
249
  8
LAYER_1
 62
   242
 10
-166.4124
 20
15.1357
 30
0.0
  0
VERTEX
  5
24A
  8
LAYER_1
 62
   242
 10
-166.0424
 20
15.4409
 30
0.0
  0
VERTEX
  5
24B
  8
LAYER_1
 62
   242
 10
-165.6177
 20
15.6714
 30
0.0
  0
VERTEX
  5
24C
  8
LAYER_1
 62
   242
 10
-165.1484
 20
15.8171
 30
0.0
  0
VERTEX
  5
24D
  8
LAYER_1
 62
   242
 10
-164.6446
 20
15.8679
 30
0.0
  0
SEQEND
  5
24E
  8
LAYER_1
 62
   242
  0
POLYLINE
  5
5B
  8
LAYER_1
 62
   242
 66
     1
 10
0.0
 20
0.0
 30
0.0
  0
VERTEX
  5
24F
  8
LAYER_1
 62
   242
 10
-164.6446
 20
10.8679
 30
0.0
  0
VERTEX
  5
250
  8
LAYER_1
 62
   242
 10
-161.8199
 20
10.8679
 30
0.0
  0
SEQEND
  5
251
  8
LAYER_1
 62
   242
  0
POLYLINE
  5
5C
  8
LAYER_1
 62
   242
 66
     1
 10
0.0
 20
0.0
 30
0.0
  0
VERTEX
  5
252
  8
LAYER_1
 62
   242
 10
-161.8075
 20
15.8762
 30
0.0
  0
VERTEX
  5
253
  8
LAYER_1
 62
   242
 10
-161.2649
 20
17.362
 30
0.0
  0
VERTEX
  5
254
  8
LAYER_1
 62
   242
 10
-160.501
 20
18.7105
 30
0.0
  0
VERTEX
  5
255
  8
LAYER_1
 62
   242
 10
-159.5403
 20
19.9028
 30
0.0
  0
VERTEX
  5
256
  8
LAYER_1
 62
   242
 10
-158.4075
 20
20.9204
 30
0.0
  0
VERTEX
  5
257
  8
LAYER_1
 62
   242
 10
-157.127
 20
21.7443
 30
0.0
  0
VERTEX
  5
258
  8
LAYER_1
 62
   242
 10
-155.7233
 20
22.3561
 30
0.0
  0
VERTEX
  5
259
  8
LAYER_1
 62
   242
 10
-154.221
 20
22.7368
 30
0.0
  0
VERTEX
  5
25A
  8
LAYER_1
 62
   242
 10
-152.6446
 20
22.8679
 30
0.0
  0
VERTEX
  5
25B
  8
LAYER_1
 62
   242
 10
-150.73
 20
22.6749
 30
0.0
  0
VERTEX
  5
25C
  8
LAYER_1
 62
   242
 10
-148.9468
 20
22.1213
 30
0.0
  0
VERTEX
  5
25D
  8
LAYER_1
 62
   242
 10
-147.3331
 20
21.2454
 30
0.0
  0
VERTEX
  5
25E
  8
LAYER_1
 62
   242
 10
-145.9271
 20
20.0854
 30
0.0
  0
VERTEX
  5
25F
  8
LAYER_1
 62
   242
 10
-144.7671
 20
18.6794
 30
0.0
  0
VERTEX
  5
260
  8
LAYER_1
 62
   242
 10
-143.8912
 20
17.0657
 30
0.0
  0
VERTEX
  5
261
  8
LAYER_1
 62
   242
 10
-143.3376
 20
15.2825
 30
0.0
  0
VERTEX
  5
262
  8
LAYER_1
 62
   242
 10
-143.1446
 20
13.3679
 30
0.0
  0
VERTEX
  5
263
  8
LAYER_1
 62
   242
 10
-143.3376
 20
11.4533
 30
0.0
  0
VERTEX
  5
264
  8
LAYER_1
 62
   242
 10
-143.8912
 20
9.6701
 30
0.0
  0
VERTEX
  5
265
  8
LAYER_1
 62
   242
 10
-144.7671
 20
8.0564
 30
0.0
  0
VERTEX
  5
266
  8
LAYER_1
 62
   242
 10
-145.9271
 20
6.6504
 30
0.0
  0
VERTEX
  5
267
  8
LAYER_1
 62
   242
 10
-147.3331
 20
5.4904
 30
0.0
  0
VERTEX
  5
268
  8
LAYER_1
 62
   242
 10
-148.9468
 20
4.6145
 30
0.0
  0
VERTEX
  5
269
  8
LAYER_1
 62
   242
 10
-150.73
 20
4.0609
 30
0.0
  0
VERTEX
  5
26A
  8
LAYER_1
 62
   242
 10
-152.6446
 20
3.8679
 30
0.0
  0
VERTEX
  5
26B
  8
LAYER_1
 62
   242
 10
-154.2272
 20
4.0
 30
0.0
  0
VERTEX
  5
26C
  8
LAYER_1
 62
   242
 10
-155.7348
 20
4.3837
 30
0.0
  0
VERTEX
  5
26D
  8
LAYER_1
 62
   242
 10
-157.1427
 20
4.9999
 30
0.0
  0
VERTEX
  5
26E
  8
LAYER_1
 62
   242
 10
-158.4262
 20
5.8298
 30
0.0
  0
VERTEX
  5
26F
  8
LAYER_1
 62
   242
 10
-159.5603
 20
6.8542
 30
0.0
  0
VERTEX
  5
270
  8
LAYER_1
 62
   242
 10
-160.5205
 20
8.0542
 30
0.0
  0
VERTEX
  5
271
  8
LAYER_1
 62
   242
 10
-161.2819
 20
9.4108
 30
0.0
  0
VERTEX
  5
272
  8
LAYER_1
 62
   242
 10
-161.8198
 20
10.9051
 30
0.0
  0
SEQEND
  5
273
  8
LAYER_1
 62
   242
  0
POLYLINE
  5
5D
  8
LAYER_1
 62
   242
 66
     1
 10
0.0
 20
0.0
 30
0.0
 70
     1
  0
VERTEX
  5
274
  8
LAYER_1
 62
   242
 10
-366.7689
 20
-93.9012
 30
0.0
  0
VERTEX
  5
275
  8
LAYER_1
 62
   242
 10
-362.5189
 20
-93.9012
 30
0.0
  0
VERTEX
  5
276
  8
LAYER_1
 62
   242
 10
-387.5189
 20
-143.9012
 30
0.0
  0
VERTEX
  5
277
  8
LAYER_1
 62
   242
 10
-390.7689
 20
-143.9011
 30
0.0
  0
VERTEX
  5
278
  8
LAYER_1
 62
   242
 10
-390.7689
 20
-118.9012
 30
0.0
  0
VERTEX
  5
279
  8
LAYER_1
 62
   242
 10
-394.2689
 20
-118.9012
 30
0.0
  0
VERTEX
  5
27A
  8
LAYER_1
 62
   242
 10
-394.2689
 20
-143.9011
 30
0.0
  0
VERTEX
  5
27B
  8
LAYER_1
 62
   242
 10
-397.5189
 20
-143.9012
 30
0.0
  0
VERTEX
  5
27C
  8
LAYER_1
 62
   242
 10
-422.5189
 20
-93.9012
 30
0.0
  0
VERTEX
  5
27D
  8
LAYER_1
 62
   242
 10
-418.2689
 20
-93.9012
 30
0.0
  0
VERTEX
  5
27E
  8
LAYER_1
 62
   242
 10
-418.2689
 20
-90.4012
 30
0.0
  0
VERTEX
  5
27F
  8
LAYER_1
 62
   242
 10
-408.2689
 20
-90.4012
 30
0.0
  0
VERTEX
  5
280
  8
LAYER_1
 62
   242
 10
-408.2689
 20
-93.9012
 30
0.0
  0
VERTEX
  5
281
  8
LAYER_1
 62
   242
 10
-376.7689
 20
-93.9012
 30
0.0
  0
VERTEX
  5
282
  8
LAYER_1
 62
   242
 10
-376.7689
 20
-90.4012
 30
0.0
  0
VERTEX
  5
283
  8
LAYER_1
 62
   242
 10
-366.7689
 20
-90.4012
 30
0.0
  0
VERTEX
  5
284
  8
LAYER_1
 62
   242
 10
-366.7689
 20
-93.9012
 30
0.0
  0
SEQEND
  5
285
  8
LAYER_1
 62
   242
  0
POLYLINE
  5
5E
  8
LAYER_1
 62
   242
 66
     1
 10
0.0
 20
0.0
 30
0.0
 70
     1
  0
VERTEX
  5
286
  8
LAYER_1
 62
   242
 10
-405.0189
 20
-98.9012
 30
0.0
  0
VERTEX
  5
287
  8
LAYER_1
 62
   242
 10
-406.0266
 20
-99.0028
 30
0.0
  0
VERTEX
  5
288
  8
LAYER_1
 62
   242
 10
-406.9651
 20
-99.2941
 30
0.0
  0
VERTEX
  5
289
  8
LAYER_1
 62
   242
 10
-407.8144
 20
-99.7551
 30
0.0
  0
VERTEX
  5
28A
  8
LAYER_1
 62
   242
 10
-408.5544
 20
-100.3657
 30
0.0
  0
VERTEX
  5
28B
  8
LAYER_1
 62
   242
 10
-409.165
 20
-101.1057
 30
0.0
  0
VERTEX
  5
28C
  8
LAYER_1
 62
   242
 10
-409.626
 20
-101.955
 30
0.0
  0
VERTEX
  5
28D
  8
LAYER_1
 62
   242
 10
-409.9173
 20
-102.8935
 30
0.0
  0
VERTEX
  5
28E
  8
LAYER_1
 62
   242
 10
-410.0189
 20
-103.9012
 30
0.0
  0
VERTEX
  5
28F
  8
LAYER_1
 62
   242
 10
-409.9173
 20
-104.9089
 30
0.0
  0
VERTEX
  5
290
  8
LAYER_1
 62
   242
 10
-409.626
 20
-105.8474
 30
0.0
  0
VERTEX
  5
291
  8
LAYER_1
 62
   242
 10
-409.165
 20
-106.6967
 30
0.0
  0
VERTEX
  5
292
  8
LAYER_1
 62
   242
 10
-408.5544
 20
-107.4367
 30
0.0
  0
VERTEX
  5
293
  8
LAYER_1
 62
   242
 10
-407.8144
 20
-108.0473
 30
0.0
  0
VERTEX
  5
294
  8
LAYER_1
 62
   242
 10
-406.9651
 20
-108.5083
 30
0.0
  0
VERTEX
  5
295
  8
LAYER_1
 62
   242
 10
-406.0266
 20
-108.7996
 30
0.0
  0
VERTEX
  5
296
  8
LAYER_1
 62
   242
 10
-405.0189
 20
-108.9012
 30
0.0
  0
VERTEX
  5
297
  8
LAYER_1
 62
   242
 10
-404.0112
 20
-108.7996
 30
0.0
  0
VERTEX
  5
298
  8
LAYER_1
 62
   242
 10
-403.0727
 20
-108.5083
 30
0.0
  0
VERTEX
  5
299
  8
LAYER_1
 62
   242
 10
-402.2234
 20
-108.0473
 30
0.0
  0
VERTEX
  5
29A
  8
LAYER_1
 62
   242
 10
-401.4834
 20
-107.4367
 30
0.0
  0
VERTEX
  5
29B
  8
LAYER_1
 62
   242
 10
-400.8728
 20
-106.6967
 30
0.0
  0
VERTEX
  5
29C
  8
LAYER_1
 62
   242
 10
-400.4118
 20
-105.8474
 30
0.0
  0
VERTEX
  5
29D
  8
LAYER_1
 62
   242
 10
-400.1205
 20
-104.9089
 30
0.0
  0
VERTEX
  5
29E
  8
LAYER_1
 62
   242
 10
-400.0189
 20
-103.9012
 30
0.0
  0
VERTEX
  5
29F
  8
LAYER_1
 62
   242
 10
-400.1205
 20
-102.8935
 30
0.0
  0
VERTEX
  5
2A0
  8
LAYER_1
 62
   242
 10
-400.4118
 20
-101.955
 30
0.0
  0
VERTEX
  5
2A1
  8
LAYER_1
 62
   242
 10
-400.8728
 20
-101.1057
 30
0.0
  0
VERTEX
  5
2A2
  8
LAYER_1
 62
   242
 10
-401.4834
 20
-100.3657
 30
0.0
  0
VERTEX
  5
2A3
  8
LAYER_1
 62
   242
 10
-402.2234
 20
-99.7551
 30
0.0
  0
VERTEX
  5
2A4
  8
LAYER_1
 62
   242
 10
-403.0727
 20
-99.2941
 30
0.0
  0
VERTEX
  5
2A5
  8
LAYER_1
 62
   242
 10
-404.0112
 20
-99.0028
 30
0.0
  0
VERTEX
  5
2A6
  8
LAYER_1
 62
   242
 10
-405.0189
 20
-98.9012
 30
0.0
  0
SEQEND
  5
2A7
  8
LAYER_1
 62
   242
  0
POLYLINE
  5
5F
  8
LAYER_1
 62
   242
 66
     1
 10
0.0
 20
0.0
 30
0.0
 70
     1
  0
VERTEX
  5
2A8
  8
LAYER_1
 62
   242
 10
-380.0189
 20
-98.9012
 30
0.0
  0
VERTEX
  5
2A9
  8
LAYER_1
 62
   242
 10
-381.0266
 20
-99.0028
 30
0.0
  0
VERTEX
  5
2AA
  8
LAYER_1
 62
   242
 10
-381.9651
 20
-99.2941
 30
0.0
  0
VERTEX
  5
2AB
  8
LAYER_1
 62
   242
 10
-382.8144
 20
-99.7551
 30
0.0
  0
VERTEX
  5
2AC
  8
LAYER_1
 62
   242
 10
-383.5544
 20
-100.3657
 30
0.0
  0
VERTEX
  5
2AD
  8
LAYER_1
 62
   242
 10
-384.165
 20
-101.1057
 30
0.0
  0
VERTEX
  5
2AE
  8
LAYER_1
 62
   242
 10
-384.626
 20
-101.955
 30
0.0
  0
VERTEX
  5
2AF
  8
LAYER_1
 62
   242
 10
-384.9173
 20
-102.8935
 30
0.0
  0
VERTEX
  5
2B0
  8
LAYER_1
 62
   242
 10
-385.0189
 20
-103.9012
 30
0.0
  0
VERTEX
  5
2B1
  8
LAYER_1
 62
   242
 10
-384.9173
 20
-104.9089
 30
0.0
  0
VERTEX
  5
2B2
  8
LAYER_1
 62
   242
 10
-384.626
 20
-105.8474
 30
0.0
  0
VERTEX
  5
2B3
  8
LAYER_1
 62
   242
 10
-384.165
 20
-106.6967
 30
0.0
  0
VERTEX
  5
2B4
  8
LAYER_1
 62
   242
 10
-383.5544
 20
-107.4367
 30
0.0
  0
VERTEX
  5
2B5
  8
LAYER_1
 62
   242
 10
-382.8144
 20
-108.0473
 30
0.0
  0
VERTEX
  5
2B6
  8
LAYER_1
 62
   242
 10
-381.9651
 20
-108.5083
 30
0.0
  0
VERTEX
  5
2B7
  8
LAYER_1
 62
   242
 10
-381.0266
 20
-108.7996
 30
0.0
  0
VERTEX
  5
2B8
  8
LAYER_1
 62
   242
 10
-380.0189
 20
-108.9012
 30
0.0
  0
VERTEX
  5
2B9
  8
LAYER_1
 62
   242
 10
-379.0112
 20
-108.7996
 30
0.0
  0
VERTEX
  5
2BA
  8
LAYER_1
 62
   242
 10
-378.0727
 20
-108.5083
 30
0.0
  0
VERTEX
  5
2BB
  8
LAYER_1
 62
   242
 10
-377.2234
 20
-108.0473
 30
0.0
  0
VERTEX
  5
2BC
  8
LAYER_1
 62
   242
 10
-376.4834
 20
-107.4367
 30
0.0
  0
VERTEX
  5
2BD
  8
LAYER_1
 62
   242
 10
-375.8728
 20
-106.6967
 30
0.0
  0
VERTEX
  5
2BE
  8
LAYER_1
 62
   242
 10
-375.4118
 20
-105.8474
 30
0.0
  0
VERTEX
  5
2BF
  8
LAYER_1
 62
   242
 10
-375.1205
 20
-104.9089
 30
0.0
  0
VERTEX
  5
2C0
  8
LAYER_1
 62
   242
 10
-375.0189
 20
-103.9012
 30
0.0
  0
VERTEX
  5
2C1
  8
LAYER_1
 62
   242
 10
-375.1205
 20
-102.8935
 30
0.0
  0
VERTEX
  5
2C2
  8
LAYER_1
 62
   242
 10
-375.4118
 20
-101.955
 30
0.0
  0
VERTEX
  5
2C3
  8
LAYER_1
 62
   242
 10
-375.8728
 20
-101.1057
 30
0.0
  0
VERTEX
  5
2C4
  8
LAYER_1
 62
   242
 10
-376.4834
 20
-100.3657
 30
0.0
  0
VERTEX
  5
2C5
  8
LAYER_1
 62
   242
 10
-377.2234
 20
-99.7551
 30
0.0
  0
VERTEX
  5
2C6
  8
LAYER_1
 62
   242
 10
-378.0727
 20
-99.2941
 30
0.0
  0
VERTEX
  5
2C7
  8
LAYER_1
 62
   242
 10
-379.0112
 20
-99.0028
 30
0.0
  0
VERTEX
  5
2C8
  8
LAYER_1
 62
   242
 10
-380.0189
 20
-98.9012
 30
0.0
  0
SEQEND
  5
2C9
  8
LAYER_1
 62
   242
  0
POLYLINE
  5
60
  8
LAYER_1
 62
   242
 66
     1
 10
0.0
 20
0.0
 30
0.0
 70
     1
  0
VERTEX
  5
2CA
  8
LAYER_1
 62
   242
 10
-380.1689
 20
-143.9012
 30
0.0
  0
VERTEX
  5
2CB
  8
LAYER_1
 62
   242
 10
-384.4189
 20
-143.9012
 30
0.0
  0
VERTEX
  5
2CC
  8
LAYER_1
 62
   242
 10
-359.4189
 20
-93.9012
 30
0.0
  0
VERTEX
  5
2CD
  8
LAYER_1
 62
   242
 10
-356.1689
 20
-93.9013
 30
0.0
  0
VERTEX
  5
2CE
  8
LAYER_1
 62
   242
 10
-356.1689
 20
-118.9012
 30
0.0
  0
VERTEX
  5
2CF
  8
LAYER_1
 62
   242
 10
-352.6689
 20
-118.9012
 30
0.0
  0
VERTEX
  5
2D0
  8
LAYER_1
 62
   242
 10
-352.6689
 20
-93.9013
 30
0.0
  0
VERTEX
  5
2D1
  8
LAYER_1
 62
   242
 10
-349.4189
 20
-93.9012
 30
0.0
  0
VERTEX
  5
2D2
  8
LAYER_1
 62
   242
 10
-324.4189
 20
-143.9012
 30
0.0
  0
VERTEX
  5
2D3
  8
LAYER_1
 62
   242
 10
-328.6689
 20
-143.9012
 30
0.0
  0
VERTEX
  5
2D4
  8
LAYER_1
 62
   242
 10
-328.6689
 20
-147.4012
 30
0.0
  0
VERTEX
  5
2D5
  8
LAYER_1
 62
   242
 10
-338.6689
 20
-147.4012
 30
0.0
  0
VERTEX
  5
2D6
  8
LAYER_1
 62
   242
 10
-338.6689
 20
-143.9012
 30
0.0
  0
VERTEX
  5
2D7
  8
LAYER_1
 62
   242
 10
-370.1689
 20
-143.9012
 30
0.0
  0
VERTEX
  5
2D8
  8
LAYER_1
 62
   242
 10
-370.1689
 20
-147.4012
 30
0.0
  0
VERTEX
  5
2D9
  8
LAYER_1
 62
   242
 10
-380.1689
 20
-147.4012
 30
0.0
  0
VERTEX
  5
2DA
  8
LAYER_1
 62
   242
 10
-380.1689
 20
-143.9012
 30
0.0
  0
SEQEND
  5
2DB
  8
LAYER_1
 62
   242
  0
POLYLINE
  5
61
  8
LAYER_1
 62
   242
 66
     1
 10
0.0
 20
0.0
 30
0.0
 70
     1
  0
VERTEX
  5
2DC
  8
LAYER_1
 62
   242
 10
-341.9189
 20
-138.9012
 30
0.0
  0
VERTEX
  5
2DD
  8
LAYER_1
 62
   242
 10
-340.9112
 20
-138.7996
 30
0.0
  0
VERTEX
  5
2DE
  8
LAYER_1
 62
   242
 10
-339.9727
 20
-138.5083
 30
0.0
  0
VERTEX
  5
2DF
  8
LAYER_1
 62
   242
 10
-339.1234
 20
-138.0473
 30
0.0
  0
VERTEX
  5
2E0
  8
LAYER_1
 62
   242
 10
-338.3834
 20
-137.4367
 30
0.0
  0
VERTEX
  5
2E1
  8
LAYER_1
 62
   242
 10
-337.7728
 20
-136.6967
 30
0.0
  0
VERTEX
  5
2E2
  8
LAYER_1
 62
   242
 10
-337.3118
 20
-135.8474
 30
0.0
  0
VERTEX
  5
2E3
  8
LAYER_1
 62
   242
 10
-337.0205
 20
-134.9089
 30
0.0
  0
VERTEX
  5
2E4
  8
LAYER_1
 62
   242
 10
-336.9189
 20
-133.9012
 30
0.0
  0
VERTEX
  5
2E5
  8
LAYER_1
 62
   242
 10
-337.0205
 20
-132.8935
 30
0.0
  0
VERTEX
  5
2E6
  8
LAYER_1
 62
   242
 10
-337.3118
 20
-131.955
 30
0.0
  0
VERTEX
  5
2E7
  8
LAYER_1
 62
   242
 10
-337.7728
 20
-131.1057
 30
0.0
  0
VERTEX
  5
2E8
  8
LAYER_1
 62
   242
 10
-338.3834
 20
-130.3657
 30
0.0
  0
VERTEX
  5
2E9
  8
LAYER_1
 62
   242
 10
-339.1234
 20
-129.7551
 30
0.0
  0
VERTEX
  5
2EA
  8
LAYER_1
 62
   242
 10
-339.9727
 20
-129.2941
 30
0.0
  0
VERTEX
  5
2EB
  8
LAYER_1
 62
   242
 10
-340.9112
 20
-129.0028
 30
0.0
  0
VERTEX
  5
2EC
  8
LAYER_1
 62
   242
 10
-341.9189
 20
-128.9012
 30
0.0
  0
VERTEX
  5
2ED
  8
LAYER_1
 62
   242
 10
-342.9266
 20
-129.0028
 30
0.0
  0
VERTEX
  5
2EE
  8
LAYER_1
 62
   242
 10
-343.8651
 20
-129.2941
 30
0.0
  0
VERTEX
  5
2EF
  8
LAYER_1
 62
   242
 10
-344.7144
 20
-129.7551
 30
0.0
  0
VERTEX
  5
2F0
  8
LAYER_1
 62
   242
 10
-345.4544
 20
-130.3657
 30
0.0
  0
VERTEX
  5
2F1
  8
LAYER_1
 62
   242
 10
-346.065
 20
-131.1057
 30
0.0
  0
VERTEX
  5
2F2
  8
LAYER_1
 62
   242
 10
-346.526
 20
-131.955
 30
0.0
  0
VERTEX
  5
2F3
  8
LAYER_1
 62
   242
 10
-346.8173
 20
-132.8935
 30
0.0
  0
VERTEX
  5
2F4
  8
LAYER_1
 62
   242
 10
-346.9189
 20
-133.9012
 30
0.0
  0
VERTEX
  5
2F5
  8
LAYER_1
 62
   242
 10
-346.8173
 20
-134.9089
 30
0.0
  0
VERTEX
  5
2F6
  8
LAYER_1
 62
   242
 10
-346.526
 20
-135.8474
 30
0.0
  0
VERTEX
  5
2F7
  8
LAYER_1
 62
   242
 10
-346.065
 20
-136.6967
 30
0.0
  0
VERTEX
  5
2F8
  8
LAYER_1
 62
   242
 10
-345.4544
 20
-137.4367
 30
0.0
  0
VERTEX
  5
2F9
  8
LAYER_1
 62
   242
 10
-344.7144
 20
-138.0473
 30
0.0
  0
VERTEX
  5
2FA
  8
LAYER_1
 62
   242
 10
-343.8651
 20
-138.5083
 30
0.0
  0
VERTEX
  5
2FB
  8
LAYER_1
 62
   242
 10
-342.9266
 20
-138.7996
 30
0.0
  0
VERTEX
  5
2FC
  8
LAYER_1
 62
   242
 10
-341.9189
 20
-138.9012
 30
0.0
  0
SEQEND
  5
2FD
  8
LAYER_1
 62
   242
  0
POLYLINE
  5
62
  8
LAYER_1
 62
   242
 66
     1
 10
0.0
 20
0.0
 30
0.0
 70
     1
  0
VERTEX
  5
2FE
  8
LAYER_1
 62
   242
 10
-366.9189
 20
-138.9012
 30
0.0
  0
VERTEX
  5
2FF
  8
LAYER_1
 62
   242
 10
-365.9112
 20
-138.7996
 30
0.0
  0
VERTEX
  5
300
  8
LAYER_1
 62
   242
 10
-364.9727
 20
-138.5083
 30
0.0
  0
VERTEX
  5
301
  8
LAYER_1
 62
   242
 10
-364.1234
 20
-138.0473
 30
0.0
  0
VERTEX
  5
302
  8
LAYER_1
 62
   242
 10
-363.3834
 20
-137.4367
 30
0.0
  0
VERTEX
  5
303
  8
LAYER_1
 62
   242
 10
-362.7728
 20
-136.6967
 30
0.0
  0
VERTEX
  5
304
  8
LAYER_1
 62
   242
 10
-362.3118
 20
-135.8474
 30
0.0
  0
VERTEX
  5
305
  8
LAYER_1
 62
   242
 10
-362.0205
 20
-134.9089
 30
0.0
  0
VERTEX
  5
306
  8
LAYER_1
 62
   242
 10
-361.9189
 20
-133.9012
 30
0.0
  0
VERTEX
  5
307
  8
LAYER_1
 62
   242
 10
-362.0205
 20
-132.8935
 30
0.0
  0
VERTEX
  5
308
  8
LAYER_1
 62
   242
 10
-362.3118
 20
-131.955
 30
0.0
  0
VERTEX
  5
309
  8
LAYER_1
 62
   242
 10
-362.7728
 20
-131.1057
 30
0.0
  0
VERTEX
  5
30A
  8
LAYER_1
 62
   242
 10
-363.3834
 20
-130.3657
 30
0.0
  0
VERTEX
  5
30B
  8
LAYER_1
 62
   242
 10
-364.1234
 20
-129.7551
 30
0.0
  0
VERTEX
  5
30C
  8
LAYER_1
 62
   242
 10
-364.9727
 20
-129.2941
 30
0.0
  0
VERTEX
  5
30D
  8
LAYER_1
 62
   242
 10
-365.9112
 20
-129.0028
 30
0.0
  0
VERTEX
  5
30E
  8
LAYER_1
 62
   242
 10
-366.9189
 20
-128.9012
 30
0.0
  0
VERTEX
  5
30F
  8
LAYER_1
 62
   242
 10
-367.9266
 20
-129.0028
 30
0.0
  0
VERTEX
  5
310
  8
LAYER_1
 62
   242
 10
-368.8651
 20
-129.2941
 30
0.0
  0
VERTEX
  5
311
  8
LAYER_1
 62
   242
 10
-369.7144
 20
-129.7551
 30
0.0
  0
VERTEX
  5
312
  8
LAYER_1
 62
   242
 10
-370.4544
 20
-130.3657
 30
0.0
  0
VERTEX
  5
313
  8
LAYER_1
 62
   242
 10
-371.065
 20
-131.1057
 30
0.0
  0
VERTEX
  5
314
  8
LAYER_1
 62
   242
 10
-371.526
 20
-131.955
 30
0.0
  0
VERTEX
  5
315
  8
LAYER_1
 62
   242
 10
-371.8173
 20
-132.8935
 30
0.0
  0
VERTEX
  5
316
  8
LAYER_1
 62
   242
 10
-371.9189
 20
-133.9012
 30
0.0
  0
VERTEX
  5
317
  8
LAYER_1
 62
   242
 10
-371.8173
 20
-134.9089
 30
0.0
  0
VERTEX
  5
318
  8
LAYER_1
 62
   242
 10
-371.526
 20
-135.8474
 30
0.0
  0
VERTEX
  5
319
  8
LAYER_1
 62
   242
 10
-371.065
 20
-136.6967
 30
0.0
  0
VERTEX
  5
31A
  8
LAYER_1
 62
   242
 10
-370.4544
 20
-137.4367
 30
0.0
  0
VERTEX
  5
31B
  8
LAYER_1
 62
   242
 10
-369.7144
 20
-138.0473
 30
0.0
  0
VERTEX
  5
31C
  8
LAYER_1
 62
   242
 10
-368.8651
 20
-138.5083
 30
0.0
  0
VERTEX
  5
31D
  8
LAYER_1
 62
   242
 10
-367.9266
 20
-138.7996
 30
0.0
  0
VERTEX
  5
31E
  8
LAYER_1
 62
   242
 10
-366.9189
 20
-138.9012
 30
0.0
  0
SEQEND
  5
31F
  8
LAYER_1
 62
   242
  0
POLYLINE
  5
63
  8
LAYER_1
 62
   242
 66
     1
 10
0.0
 20
0.0
 30
0.0
 70
     1
  0
VERTEX
  5
320
  8
LAYER_1
 62
   242
 10
-408.4813
 20
-67.9321
 30
0.0
  0
VERTEX
  5
321
  8
LAYER_1
 62
   242
 10
-411.374
 20
-55.8107
 30
0.0
  0
VERTEX
  5
322
  8
LAYER_1
 62
   242
 10
-408.8707
 20
-55.8107
 30
0.0
  0
VERTEX
  5
323
  8
LAYER_1
 62
   242
 10
-407.0419
 20
-64.1362
 30
0.0
  0
VERTEX
  5
324
  8
LAYER_1
 62
   242
 10
-404.8265
 20
-55.8107
 30
0.0
  0
VERTEX
  5
325
  8
LAYER_1
 62
   242
 10
-401.9168
 20
-55.8107
 30
0.0
  0
VERTEX
  5
326
  8
LAYER_1
 62
   242
 10
-399.7917
 20
-64.2773
 30
0.0
  0
VERTEX
  5
327
  8
LAYER_1
 62
   242
 10
-397.9318
 20
-55.8107
 30
0.0
  0
VERTEX
  5
328
  8
LAYER_1
 62
   242
 10
-395.468
 20
-55.8107
 30
0.0
  0
VERTEX
  5
329
  8
LAYER_1
 62
   242
 10
-398.4116
 20
-67.9321
 30
0.0
  0
VERTEX
  5
32A
  8
LAYER_1
 62
   242
 10
-401.008
 20
-67.9321
 30
0.0
  0
VERTEX
  5
32B
  8
LAYER_1
 62
   242
 10
-403.421
 20
-58.87
 30
0.0
  0
VERTEX
  5
32C
  8
LAYER_1
 62
   242
 10
-405.8284
 20
-67.9321
 30
0.0
  0
VERTEX
  5
32D
  8
LAYER_1
 62
   242
 10
-408.4813
 20
-67.9321
 30
0.0
  0
SEQEND
  5
32E
  8
LAYER_1
 62
   242
  0
POLYLINE
  5
64
  8
LAYER_1
 62
   242
 66
     1
 10
0.0
 20
0.0
 30
0.0
 70
     1
  0
VERTEX
  5
32F
  8
LAYER_1
 62
   242
 10
-175.6661
 20
-67.9321
 30
0.0
  0
VERTEX
  5
330
  8
LAYER_1
 62
   242
 10
-175.6661
 20
-55.8107
 30
0.0
  0
VERTEX
  5
331
  8
LAYER_1
 62
   242
 10
-166.6802
 20
-55.8107
 30
0.0
  0
VERTEX
  5
332
  8
LAYER_1
 62
   242
 10
-166.6802
 20
-57.8624
 30
0.0
  0
VERTEX
  5
333
  8
LAYER_1
 62
   242
 10
-173.2192
 20
-57.8624
 30
0.0
  0
VERTEX
  5
334
  8
LAYER_1
 62
   242
 10
-173.2192
 20
-60.5492
 30
0.0
  0
VERTEX
  5
335
  8
LAYER_1
 62
   242
 10
-167.1345
 20
-60.5492
 30
0.0
  0
VERTEX
  5
336
  8
LAYER_1
 62
   242
 10
-167.1345
 20
-62.5896
 30
0.0
  0
VERTEX
  5
337
  8
LAYER_1
 62
   242
 10
-173.2192
 20
-62.5896
 30
0.0
  0
VERTEX
  5
338
  8
LAYER_1
 62
   242
 10
-173.2192
 20
-65.8888
 30
0.0
  0
VERTEX
  5
339
  8
LAYER_1
 62
   242
 10
-166.4487
 20
-65.8888
 30
0.0
  0
VERTEX
  5
33A
  8
LAYER_1
 62
   242
 10
-166.4487
 20
-67.9321
 30
0.0
  0
VERTEX
  5
33B
  8
LAYER_1
 62
   242
 10
-175.6661
 20
-67.9321
 30
0.0
  0
SEQEND
  5
33C
  8
LAYER_1
 62
   242
  0
POLYLINE
  5
65
  8
LAYER_1
 62
   242
 66
     1
 10
0.0
 20
0.0
 30
0.0
 70
     1
  0
VERTEX
  5
33D
  8
LAYER_1
 62
   242
 10
-148.4113
 20
-34.9321
 30
0.0
  0
VERTEX
  5
33E
  8
LAYER_1
 62
   242
 10
-148.0083
 20
-34.9727
 30
0.0
  0
VERTEX
  5
33F
  8
LAYER_1
 62
   242
 10
-147.6328
 20
-35.0893
 30
0.0
  0
VERTEX
  5
340
  8
LAYER_1
 62
   242
 10
-147.2931
 20
-35.2737
 30
0.0
  0
VERTEX
  5
341
  8
LAYER_1
 62
   242
 10
-146.9971
 20
-35.5179
 30
0.0
  0
VERTEX
  5
342
  8
LAYER_1
 62
   242
 10
-146.7529
 20
-35.8139
 30
0.0
  0
VERTEX
  5
343
  8
LAYER_1
 62
   242
 10
-146.5685
 20
-36.1536
 30
0.0
  0
VERTEX
  5
344
  8
LAYER_1
 62
   242
 10
-146.4519
 20
-36.529
 30
0.0
  0
VERTEX
  5
345
  8
LAYER_1
 62
   242
 10
-146.4113
 20
-36.9321
 30
0.0
  0
VERTEX
  5
346
  8
LAYER_1
 62
   242
 10
-146.4519
 20
-37.3352
 30
0.0
  0
VERTEX
  5
347
  8
LAYER_1
 62
   242
 10
-146.5685
 20
-37.7106
 30
0.0
  0
VERTEX
  5
348
  8
LAYER_1
 62
   242
 10
-146.7529
 20
-38.0503
 30
0.0
  0
VERTEX
  5
349
  8
LAYER_1
 62
   242
 10
-146.9971
 20
-38.3463
 30
0.0
  0
VERTEX
  5
34A
  8
LAYER_1
 62
   242
 10
-147.2931
 20
-38.5905
 30
0.0
  0
VERTEX
  5
34B
  8
LAYER_1
 62
   242
 10
-147.6328
 20
-38.7749
 30
0.0
  0
VERTEX
  5
34C
  8
LAYER_1
 62
   242
 10
-148.0083
 20
-38.8915
 30
0.0
  0
VERTEX
  5
34D
  8
LAYER_1
 62
   242
 10
-148.4113
 20
-38.9321
 30
0.0
  0
VERTEX
  5
34E
  8
LAYER_1
 62
   242
 10
-148.8143
 20
-38.8915
 30
0.0
  0
VERTEX
  5
34F
  8
LAYER_1
 62
   242
 10
-149.1898
 20
-38.7749
 30
0.0
  0
VERTEX
  5
350
  8
LAYER_1
 62
   242
 10
-149.5295
 20
-38.5905
 30
0.0
  0
VERTEX
  5
351
  8
LAYER_1
 62
   242
 10
-149.8255
 20
-38.3463
 30
0.0
  0
VERTEX
  5
352
  8
LAYER_1
 62
   242
 10
-150.0697
 20
-38.0503
 30
0.0
  0
VERTEX
  5
353
  8
LAYER_1
 62
   242
 10
-150.2541
 20
-37.7106
 30
0.0
  0
VERTEX
  5
354
  8
LAYER_1
 62
   242
 10
-150.3707
 20
-37.3352
 30
0.0
  0
VERTEX
  5
355
  8
LAYER_1
 62
   242
 10
-150.4113
 20
-36.9321
 30
0.0
  0
VERTEX
  5
356
  8
LAYER_1
 62
   242
 10
-150.3707
 20
-36.529
 30
0.0
  0
VERTEX
  5
357
  8
LAYER_1
 62
   242
 10
-150.2541
 20
-36.1536
 30
0.0
  0
VERTEX
  5
358
  8
LAYER_1
 62
   242
 10
-150.0697
 20
-35.8139
 30
0.0
  0
VERTEX
  5
359
  8
LAYER_1
 62
   242
 10
-149.8255
 20
-35.5179
 30
0.0
  0
VERTEX
  5
35A
  8
LAYER_1
 62
   242
 10
-149.5295
 20
-35.2737
 30
0.0
  0
VERTEX
  5
35B
  8
LAYER_1
 62
   242
 10
-149.1898
 20
-35.0893
 30
0.0
  0
VERTEX
  5
35C
  8
LAYER_1
 62
   242
 10
-148.8143
 20
-34.9727
 30
0.0
  0
VERTEX
  5
35D
  8
LAYER_1
 62
   242
 10
-148.4113
 20
-34.9321
 30
0.0
  0
SEQEND
  5
35E
  8
LAYER_1
 62
   242
  0
POLYLINE
  5
66
  8
LAYER_1
 62
   242
 66
     1
 10
0.0
 20
0.0
 30
0.0
 70
     1
  0
VERTEX
  5
35F
  8
LAYER_1
 62
   242
 10
-429.4113
 20
-30.9321
 30
0.0
  0
VERTEX
  5
360
  8
LAYER_1
 62
   242
 10
-429.0083
 20
-30.9727
 30
0.0
  0
VERTEX
  5
361
  8
LAYER_1
 62
   242
 10
-428.6328
 20
-31.0893
 30
0.0
  0
VERTEX
  5
362
  8
LAYER_1
 62
   242
 10
-428.2931
 20
-31.2737
 30
0.0
  0
VERTEX
  5
363
  8
LAYER_1
 62
   242
 10
-427.9971
 20
-31.5179
 30
0.0
  0
VERTEX
  5
364
  8
LAYER_1
 62
   242
 10
-427.7529
 20
-31.8139
 30
0.0
  0
VERTEX
  5
365
  8
LAYER_1
 62
   242
 10
-427.5685
 20
-32.1536
 30
0.0
  0
VERTEX
  5
366
  8
LAYER_1
 62
   242
 10
-427.4519
 20
-32.529
 30
0.0
  0
VERTEX
  5
367
  8
LAYER_1
 62
   242
 10
-427.4113
 20
-32.9321
 30
0.0
  0
VERTEX
  5
368
  8
LAYER_1
 62
   242
 10
-427.4519
 20
-33.3352
 30
0.0
  0
VERTEX
  5
369
  8
LAYER_1
 62
   242
 10
-427.5685
 20
-33.7106
 30
0.0
  0
VERTEX
  5
36A
  8
LAYER_1
 62
   242
 10
-427.7529
 20
-34.0503
 30
0.0
  0
VERTEX
  5
36B
  8
LAYER_1
 62
   242
 10
-427.9971
 20
-34.3463
 30
0.0
  0
VERTEX
  5
36C
  8
LAYER_1
 62
   242
 10
-428.2931
 20
-34.5905
 30
0.0
  0
VERTEX
  5
36D
  8
LAYER_1
 62
   242
 10
-428.6328
 20
-34.7749
 30
0.0
  0
VERTEX
  5
36E
  8
LAYER_1
 62
   242
 10
-429.0083
 20
-34.8915
 30
0.0
  0
VERTEX
  5
36F
  8
LAYER_1
 62
   242
 10
-429.4113
 20
-34.9321
 30
0.0
  0
VERTEX
  5
370
  8
LAYER_1
 62
   242
 10
-429.8143
 20
-34.8915
 30
0.0
  0
VERTEX
  5
371
  8
LAYER_1
 62
   242
 10
-430.1898
 20
-34.7749
 30
0.0
  0
VERTEX
  5
372
  8
LAYER_1
 62
   242
 10
-430.5295
 20
-34.5905
 30
0.0
  0
VERTEX
  5
373
  8
LAYER_1
 62
   242
 10
-430.8255
 20
-34.3463
 30
0.0
  0
VERTEX
  5
374
  8
LAYER_1
 62
   242
 10
-431.0697
 20
-34.0503
 30
0.0
  0
VERTEX
  5
375
  8
LAYER_1
 62
   242
 10
-431.2541
 20
-33.7106
 30
0.0
  0
VERTEX
  5
376
  8
LAYER_1
 62
   242
 10
-431.3707
 20
-33.3352
 30
0.0
  0
VERTEX
  5
377
  8
LAYER_1
 62
   242
 10
-431.4113
 20
-32.9321
 30
0.0
  0
VERTEX
  5
378
  8
LAYER_1
 62
   242
 10
-431.3707
 20
-32.529
 30
0.0
  0
VERTEX
  5
379
  8
LAYER_1
 62
   242
 10
-431.2541
 20
-32.1536
 30
0.0
  0
VERTEX
  5
37A
  8
LAYER_1
 62
   242
 10
-431.0697
 20
-31.8139
 30
0.0
  0
VERTEX
  5
37B
  8
LAYER_1
 62
   242
 10
-430.8255
 20
-31.5179
 30
0.0
  0
VERTEX
  5
37C
  8
LAYER_1
 62
   242
 10
-430.5295
 20
-31.2737
 30
0.0
  0
VERTEX
  5
37D
  8
LAYER_1
 62
   242
 10
-430.1898
 20
-31.0893
 30
0.0
  0
VERTEX
  5
37E
  8
LAYER_1
 62
   242
 10
-429.8143
 20
-30.9727
 30
0.0
  0
VERTEX
  5
37F
  8
LAYER_1
 62
   242
 10
-429.4113
 20
-30.9321
 30
0.0
  0
SEQEND
  5
380
  8
LAYER_1
 62
   242
  0
POLYLINE
  5
67
  8
LAYER_1
 62
   242
 66
     1
 10
0.0
 20
0.0
 30
0.0
 70
     1
  0
VERTEX
  5
381
  8
LAYER_1
 62
   242
 10
-306.4114
 20
-55.4321
 30
0.0
  0
VERTEX
  5
382
  8
LAYER_1
 62
   242
 10
-301.4114
 20
-55.4321
 30
0.0
  0
VERTEX
  5
383
  8
LAYER_1
 62
   242
 10
-301.4114
 20
-65.4321
 30
0.0
  0
VERTEX
  5
384
  8
LAYER_1
 62
   242
 10
-306.4114
 20
-65.4321
 30
0.0
  0
VERTEX
  5
385
  8
LAYER_1
 62
   242
 10
-306.4114
 20
-55.4321
 30
0.0
  0
SEQEND
  5
386
  8
LAYER_1
 62
   242
  0
POLYLINE
  5
68
  8
LAYER_1
 62
   242
 66
     1
 10
0.0
 20
0.0
 30
0.0
 70
     1
  0
VERTEX
  5
387
  8
LAYER_1
 62
   242
 10
-276.4114
 20
-55.4321
 30
0.0
  0
VERTEX
  5
388
  8
LAYER_1
 62
   242
 10
-271.4114
 20
-55.4321
 30
0.0
  0
VERTEX
  5
389
  8
LAYER_1
 62
   242
 10
-271.4114
 20
-65.4321
 30
0.0
  0
VERTEX
  5
38A
  8
LAYER_1
 62
   242
 10
-276.4114
 20
-65.4321
 30
0.0
  0
VERTEX
  5
38B
  8
LAYER_1
 62
   242
 10
-276.4114
 20
-55.4321
 30
0.0
  0
SEQEND
  5
38C
  8
LAYER_1
 62
   242
  0
POLYLINE
  5
69
  8
LAYER_1
 62
   242
 66
     1
 10
0.0
 20
0.0
 30
0.0
 70
     1
  0
VERTEX
  5
38D
  8
LAYER_1
 62
   242
 10
-306.4114
 20
-92.9321
 30
0.0
  0
VERTEX
  5
38E
  8
LAYER_1
 62
   242
 10
-301.4114
 20
-92.9321
 30
0.0
  0
VERTEX
  5
38F
  8
LAYER_1
 62
   242
 10
-301.4114
 20
-102.9321
 30
0.0
  0
VERTEX
  5
390
  8
LAYER_1
 62
   242
 10
-306.4114
 20
-102.9321
 30
0.0
  0
VERTEX
  5
391
  8
LAYER_1
 62
   242
 10
-306.4114
 20
-92.9321
 30
0.0
  0
SEQEND
  5
392
  8
LAYER_1
 62
   242
  0
POLYLINE
  5
6A
  8
LAYER_1
 62
   242
 66
     1
 10
0.0
 20
0.0
 30
0.0
 70
     1
  0
VERTEX
  5
393
  8
LAYER_1
 62
   242
 10
-276.4114
 20
-92.9321
 30
0.0
  0
VERTEX
  5
394
  8
LAYER_1
 62
   242
 10
-271.4114
 20
-92.9321
 30
0.0
  0
VERTEX
  5
395
  8
LAYER_1
 62
   242
 10
-271.4114
 20
-102.9321
 30
0.0
  0
VERTEX
  5
396
  8
LAYER_1
 62
   242
 10
-276.4114
 20
-102.9321
 30
0.0
  0
VERTEX
  5
397
  8
LAYER_1
 62
   242
 10
-276.4114
 20
-92.9321
 30
0.0
  0
SEQEND
  5
398
  8
LAYER_1
 62
   242
  0
POLYLINE
  5
6B
  8
LAYER_1
 62
   242
 66
     1
 10
0.0
 20
0.0
 30
0.0
 70
     1
  0
VERTEX
  5
399
  8
LAYER_1
 62
   242
 10
-306.4114
 20
-130.4321
 30
0.0
  0
VERTEX
  5
39A
  8
LAYER_1
 62
   242
 10
-301.4114
 20
-130.4321
 30
0.0
  0
VERTEX
  5
39B
  8
LAYER_1
 62
   242
 10
-301.4114
 20
-140.4321
 30
0.0
  0
VERTEX
  5
39C
  8
LAYER_1
 62
   242
 10
-306.4114
 20
-140.4321
 30
0.0
  0
VERTEX
  5
39D
  8
LAYER_1
 62
   242
 10
-306.4114
 20
-130.4321
 30
0.0
  0
SEQEND
  5
39E
  8
LAYER_1
 62
   242
  0
POLYLINE
  5
6C
  8
LAYER_1
 62
   242
 66
     1
 10
0.0
 20
0.0
 30
0.0
 70
     1
  0
VERTEX
  5
39F
  8
LAYER_1
 62
   242
 10
-276.4114
 20
-130.4321
 30
0.0
  0
VERTEX
  5
3A0
  8
LAYER_1
 62
   242
 10
-271.4114
 20
-130.4321
 30
0.0
  0
VERTEX
  5
3A1
  8
LAYER_1
 62
   242
 10
-271.4114
 20
-140.4321
 30
0.0
  0
VERTEX
  5
3A2
  8
LAYER_1
 62
   242
 10
-276.4114
 20
-140.4321
 30
0.0
  0
VERTEX
  5
3A3
  8
LAYER_1
 62
   242
 10
-276.4114
 20
-130.4321
 30
0.0
  0
SEQEND
  5
3A4
  8
LAYER_1
 62
   242
  0
POLYLINE
  5
6D
  8
LAYER_1
 62
   242
 66
     1
 10
0.0
 20
0.0
 30
0.0
  0
VERTEX
  5
3A5
  8
LAYER_1
 62
   242
 10
-113.9113
 20
-22.9321
 30
0.0
  0
VERTEX
  5
3A6
  8
LAYER_1
 62
   242
 10
-121.4113
 20
-22.9321
 30
0.0
  0
VERTEX
  5
3A7
  8
LAYER_1
 62
   242
 10
-121.4113
 20
-19.4321
 30
0.0
  0
VERTEX
  5
3A8
  8
LAYER_1
 62
   242
 10
-131.4113
 20
-19.4321
 30
0.0
  0
VERTEX
  5
3A9
  8
LAYER_1
 62
   242
 10
-131.4113
 20
-22.9321
 30
0.0
  0
VERTEX
  5
3AA
  8
LAYER_1
 62
   242
 10
-138.9113
 20
-22.9321
 30
0.0
  0
VERTEX
  5
3AB
  8
LAYER_1
 62
   242
 10
-138.9113
 20
-43.9321
 30
0.0
  0
VERTEX
  5
3AC
  8
LAYER_1
 62
   242
 10
-142.9113
 20
-43.9321
 30
0.0
  0
VERTEX
  5
3AD
  8
LAYER_1
 62
   242
 10
-142.9113
 20
-22.9321
 30
0.0
  0
VERTEX
  5
3AE
  8
LAYER_1
 62
   242
 10
-153.9113
 20
-22.9321
 30
0.0
  0
VERTEX
  5
3AF
  8
LAYER_1
 62
   242
 10
-153.9113
 20
-43.9321
 30
0.0
  0
VERTEX
  5
3B0
  8
LAYER_1
 62
   242
 10
-157.9113
 20
-43.9321
 30
0.0
  0
VERTEX
  5
3B1
  8
LAYER_1
 62
   242
 10
-157.9113
 20
-32.9321
 30
0.0
  0
VERTEX
  5
3B2
  8
LAYER_1
 62
   242
 10
-167.9113
 20
-32.9321
 30
0.0
  0
VERTEX
  5
3B3
  8
LAYER_1
 62
   242
 10
-167.9113
 20
-22.9321
 30
0.0
  0
VERTEX
  5
3B4
  8
LAYER_1
 62
   242
 10
-182.4113
 20
-22.9321
 30
0.0
  0
VERTEX
  5
3B5
  8
LAYER_1
 62
   242
 10
-182.4113
 20
-26.8866
 30
0.0
  0
VERTEX
  5
3B6
  8
LAYER_1
 62
   242
 10
-181.3613
 20
-26.8866
 30
0.0
  0
VERTEX
  5
3B7
  8
LAYER_1
 62
   242
 10
-181.3613
 20
-28.9866
 30
0.0
  0
VERTEX
  5
3B8
  8
LAYER_1
 62
   242
 10
-182.4113
 20
-28.9866
 30
0.0
  0
VERTEX
  5
3B9
  8
LAYER_1
 62
   242
 10
-182.4113
 20
-32.9321
 30
0.0
  0
VERTEX
  5
3BA
  8
LAYER_1
 62
   242
 10
-185.4113
 20
-32.9321
 30
0.0
  0
VERTEX
  5
3BB
  8
LAYER_1
 62
   242
 10
-185.4113
 20
-28.9866
 30
0.0
  0
VERTEX
  5
3BC
  8
LAYER_1
 62
   242
 10
-186.4613
 20
-28.9866
 30
0.0
  0
VERTEX
  5
3BD
  8
LAYER_1
 62
   242
 10
-186.4613
 20
-26.8866
 30
0.0
  0
VERTEX
  5
3BE
  8
LAYER_1
 62
   242
 10
-185.4113
 20
-26.8866
 30
0.0
  0
VERTEX
  5
3BF
  8
LAYER_1
 62
   242
 10
-185.4113
 20
-22.9321
 30
0.0
  0
VERTEX
  5
3C0
  8
LAYER_1
 62
   242
 10
-201.212
 20
-22.9321
 30
0.0
  0
VERTEX
  5
3C1
  8
LAYER_1
 62
   242
 10
-201.212
 20
-47.9321
 30
0.0
  0
VERTEX
  5
3C2
  8
LAYER_1
 62
   242
 10
-204.712
 20
-47.9321
 30
0.0
  0
VERTEX
  5
3C3
  8
LAYER_1
 62
   242
 10
-204.712
 20
-22.9321
 30
0.0
  0
VERTEX
  5
3C4
  8
LAYER_1
 62
   242
 10
-212.9618
 20
-22.9321
 30
0.0
  0
VERTEX
  5
3C5
  8
LAYER_1
 62
   242
 10
-217.4113
 20
-22.9321
 30
0.0
  0
VERTEX
  5
3C6
  8
LAYER_1
 62
   242
 10
-217.4113
 20
-26.8866
 30
0.0
  0
VERTEX
  5
3C7
  8
LAYER_1
 62
   242
 10
-216.3613
 20
-26.8866
 30
0.0
  0
VERTEX
  5
3C8
  8
LAYER_1
 62
   242
 10
-216.3613
 20
-28.9866
 30
0.0
  0
VERTEX
  5
3C9
  8
LAYER_1
 62
   242
 10
-217.4113
 20
-28.9866
 30
0.0
  0
VERTEX
  5
3CA
  8
LAYER_1
 62
   242
 10
-217.4113
 20
-32.9321
 30
0.0
  0
VERTEX
  5
3CB
  8
LAYER_1
 62
   242
 10
-220.4113
 20
-32.9321
 30
0.0
  0
VERTEX
  5
3CC
  8
LAYER_1
 62
   242
 10
-220.4113
 20
-28.9866
 30
0.0
  0
VERTEX
  5
3CD
  8
LAYER_1
 62
   242
 10
-221.4613
 20
-28.9866
 30
0.0
  0
VERTEX
  5
3CE
  8
LAYER_1
 62
   242
 10
-221.4613
 20
-26.8866
 30
0.0
  0
VERTEX
  5
3CF
  8
LAYER_1
 62
   242
 10
-220.4113
 20
-26.8866
 30
0.0
  0
VERTEX
  5
3D0
  8
LAYER_1
 62
   242
 10
-220.4113
 20
-22.9321
 30
0.0
  0
VERTEX
  5
3D1
  8
LAYER_1
 62
   242
 10
-227.9618
 20
-22.9321
 30
0.0
  0
VERTEX
  5
3D2
  8
LAYER_1
 62
   242
 10
-227.9618
 20
-19.4321
 30
0.0
  0
VERTEX
  5
3D3
  8
LAYER_1
 62
   242
 10
-247.9618
 20
-19.4321
 30
0.0
  0
VERTEX
  5
3D4
  8
LAYER_1
 62
   242
 10
-247.9618
 20
-22.9321
 30
0.0
  0
VERTEX
  5
3D5
  8
LAYER_1
 62
   242
 10
-252.4113
 20
-22.9321
 30
0.0
  0
VERTEX
  5
3D6
  8
LAYER_1
 62
   242
 10
-252.4113
 20
-26.8866
 30
0.0
  0
VERTEX
  5
3D7
  8
LAYER_1
 62
   242
 10
-251.3613
 20
-26.8866
 30
0.0
  0
VERTEX
  5
3D8
  8
LAYER_1
 62
   242
 10
-251.3613
 20
-28.9866
 30
0.0
  0
VERTEX
  5
3D9
  8
LAYER_1
 62
   242
 10
-252.4113
 20
-28.9866
 30
0.0
  0
VERTEX
  5
3DA
  8
LAYER_1
 62
   242
 10
-252.4113
 20
-32.9321
 30
0.0
  0
VERTEX
  5
3DB
  8
LAYER_1
 62
   242
 10
-255.4113
 20
-32.9321
 30
0.0
  0
VERTEX
  5
3DC
  8
LAYER_1
 62
   242
 10
-255.4113
 20
-28.9866
 30
0.0
  0
VERTEX
  5
3DD
  8
LAYER_1
 62
   242
 10
-256.4613
 20
-28.9866
 30
0.0
  0
VERTEX
  5
3DE
  8
LAYER_1
 62
   242
 10
-256.4613
 20
-26.8866
 30
0.0
  0
VERTEX
  5
3DF
  8
LAYER_1
 62
   242
 10
-255.4113
 20
-26.8866
 30
0.0
  0
VERTEX
  5
3E0
  8
LAYER_1
 62
   242
 10
-255.4113
 20
-22.9321
 30
0.0
  0
VERTEX
  5
3E1
  8
LAYER_1
 62
   242
 10
-262.9618
 20
-22.9321
 30
0.0
  0
VERTEX
  5
3E2
  8
LAYER_1
 62
   242
 10
-262.9618
 20
-19.4321
 30
0.0
  0
VERTEX
  5
3E3
  8
LAYER_1
 62
   242
 10
-282.9618
 20
-19.4321
 30
0.0
  0
VERTEX
  5
3E4
  8
LAYER_1
 62
   242
 10
-282.9618
 20
-22.9321
 30
0.0
  0
VERTEX
  5
3E5
  8
LAYER_1
 62
   242
 10
-288.9113
 20
-22.9321
 30
0.0
  0
SEQEND
  5
3E6
  8
LAYER_1
 62
   242
  0
POLYLINE
  5
6E
  8
LAYER_1
 62
   242
 66
     1
 10
0.0
 20
0.0
 30
0.0
  0
VERTEX
  5
3E7
  8
LAYER_1
 62
   242
 10
-288.9113
 20
-22.9321
 30
0.0
  0
VERTEX
  5
3E8
  8
LAYER_1
 62
   242
 10
-294.8608
 20
-22.9321
 30
0.0
  0
VERTEX
  5
3E9
  8
LAYER_1
 62
   242
 10
-294.8608
 20
-19.4321
 30
0.0
  0
VERTEX
  5
3EA
  8
LAYER_1
 62
   242
 10
-314.8608
 20
-19.4321
 30
0.0
  0
VERTEX
  5
3EB
  8
LAYER_1
 62
   242
 10
-314.8608
 20
-22.9321
 30
0.0
  0
VERTEX
  5
3EC
  8
LAYER_1
 62
   242
 10
-322.4113
 20
-22.9321
 30
0.0
  0
VERTEX
  5
3ED
  8
LAYER_1
 62
   242
 10
-322.4113
 20
-26.8866
 30
0.0
  0
VERTEX
  5
3EE
  8
LAYER_1
 62
   242
 10
-321.3613
 20
-26.8866
 30
0.0
  0
VERTEX
  5
3EF
  8
LAYER_1
 62
   242
 10
-321.3613
 20
-28.9866
 30
0.0
  0
VERTEX
  5
3F0
  8
LAYER_1
 62
   242
 10
-322.4113
 20
-28.9866
 30
0.0
  0
VERTEX
  5
3F1
  8
LAYER_1
 62
   242
 10
-322.4113
 20
-32.9321
 30
0.0
  0
VERTEX
  5
3F2
  8
LAYER_1
 62
   242
 10
-325.4113
 20
-32.9321
 30
0.0
  0
VERTEX
  5
3F3
  8
LAYER_1
 62
   242
 10
-325.4113
 20
-28.9866
 30
0.0
  0
VERTEX
  5
3F4
  8
LAYER_1
 62
   242
 10
-326.4613
 20
-28.9866
 30
0.0
  0
VERTEX
  5
3F5
  8
LAYER_1
 62
   242
 10
-326.4613
 20
-26.8866
 30
0.0
  0
VERTEX
  5
3F6
  8
LAYER_1
 62
   242
 10
-325.4113
 20
-26.8866
 30
0.0
  0
VERTEX
  5
3F7
  8
LAYER_1
 62
   242
 10
-325.4113
 20
-22.9321
 30
0.0
  0
VERTEX
  5
3F8
  8
LAYER_1
 62
   242
 10
-329.8608
 20
-22.9321
 30
0.0
  0
VERTEX
  5
3F9
  8
LAYER_1
 62
   242
 10
-329.8608
 20
-19.4321
 30
0.0
  0
VERTEX
  5
3FA
  8
LAYER_1
 62
   242
 10
-349.8608
 20
-19.4321
 30
0.0
  0
VERTEX
  5
3FB
  8
LAYER_1
 62
   242
 10
-349.8608
 20
-22.9321
 30
0.0
  0
VERTEX
  5
3FC
  8
LAYER_1
 62
   242
 10
-357.4113
 20
-22.9321
 30
0.0
  0
VERTEX
  5
3FD
  8
LAYER_1
 62
   242
 10
-357.4113
 20
-26.8866
 30
0.0
  0
VERTEX
  5
3FE
  8
LAYER_1
 62
   242
 10
-356.3613
 20
-26.8866
 30
0.0
  0
VERTEX
  5
3FF
  8
LAYER_1
 62
   242
 10
-356.3613
 20
-28.9866
 30
0.0
  0
VERTEX
  5
400
  8
LAYER_1
 62
   242
 10
-357.4113
 20
-28.9866
 30
0.0
  0
VERTEX
  5
401
  8
LAYER_1
 62
   242
 10
-357.4113
 20
-32.9321
 30
0.0
  0
VERTEX
  5
402
  8
LAYER_1
 62
   242
 10
-360.4113
 20
-32.9321
 30
0.0
  0
VERTEX
  5
403
  8
LAYER_1
 62
   242
 10
-360.4113
 20
-28.9866
 30
0.0
  0
VERTEX
  5
404
  8
LAYER_1
 62
   242
 10
-361.4613
 20
-28.9866
 30
0.0
  0
VERTEX
  5
405
  8
LAYER_1
 62
   242
 10
-361.4613
 20
-26.8866
 30
0.0
  0
VERTEX
  5
406
  8
LAYER_1
 62
   242
 10
-360.4113
 20
-26.8866
 30
0.0
  0
VERTEX
  5
407
  8
LAYER_1
 62
   242
 10
-360.4113
 20
-22.9321
 30
0.0
  0
VERTEX
  5
408
  8
LAYER_1
 62
   242
 10
-373.111
 20
-22.9321
 30
0.0
  0
VERTEX
  5
409
  8
LAYER_1
 62
   242
 10
-373.111
 20
-47.9321
 30
0.0
  0
VERTEX
  5
40A
  8
LAYER_1
 62
   242
 10
-376.611
 20
-47.9321
 30
0.0
  0
VERTEX
  5
40B
  8
LAYER_1
 62
   242
 10
-376.611
 20
-22.9321
 30
0.0
  0
VERTEX
  5
40C
  8
LAYER_1
 62
   242
 10
-392.4113
 20
-22.9321
 30
0.0
  0
VERTEX
  5
40D
  8
LAYER_1
 62
   242
 10
-392.4113
 20
-26.8866
 30
0.0
  0
VERTEX
  5
40E
  8
LAYER_1
 62
   242
 10
-391.3613
 20
-26.8866
 30
0.0
  0
VERTEX
  5
40F
  8
LAYER_1
 62
   242
 10
-391.3613
 20
-28.9866
 30
0.0
  0
VERTEX
  5
410
  8
LAYER_1
 62
   242
 10
-392.4113
 20
-28.9866
 30
0.0
  0
VERTEX
  5
411
  8
LAYER_1
 62
   242
 10
-392.4113
 20
-32.9321
 30
0.0
  0
VERTEX
  5
412
  8
LAYER_1
 62
   242
 10
-395.4113
 20
-32.9321
 30
0.0
  0
VERTEX
  5
413
  8
LAYER_1
 62
   242
 10
-395.4113
 20
-28.9866
 30
0.0
  0
VERTEX
  5
414
  8
LAYER_1
 62
   242
 10
-396.4613
 20
-28.9866
 30
0.0
  0
VERTEX
  5
415
  8
LAYER_1
 62
   242
 10
-396.4613
 20
-26.8866
 30
0.0
  0
VERTEX
  5
416
  8
LAYER_1
 62
   242
 10
-395.4113
 20
-26.8866
 30
0.0
  0
VERTEX
  5
417
  8
LAYER_1
 62
   242
 10
-395.4113
 20
-22.9321
 30
0.0
  0
VERTEX
  5
418
  8
LAYER_1
 62
   242
 10
-409.9113
 20
-22.9321
 30
0.0
  0
VERTEX
  5
419
  8
LAYER_1
 62
   242
 10
-409.9113
 20
-32.9321
 30
0.0
  0
VERTEX
  5
41A
  8
LAYER_1
 62
   242
 10
-419.9113
 20
-32.9321
 30
0.0
  0
VERTEX
  5
41B
  8
LAYER_1
 62
   242
 10
-419.9113
 20
-38.9321
 30
0.0
  0
VERTEX
  5
41C
  8
LAYER_1
 62
   242
 10
-423.9113
 20
-38.9321
 30
0.0
  0
VERTEX
  5
41D
  8
LAYER_1
 62
   242
 10
-423.9113
 20
-22.9321
 30
0.0
  0
VERTEX
  5
41E
  8
LAYER_1
 62
   242
 10
-434.9113
 20
-22.9321
 30
0.0
  0
VERTEX
  5
41F
  8
LAYER_1
 62
   242
 10
-434.9113
 20
-38.9321
 30
0.0
  0
VERTEX
  5
420
  8
LAYER_1
 62
   242
 10
-438.9113
 20
-38.9321
 30
0.0
  0
VERTEX
  5
421
  8
LAYER_1
 62
   242
 10
-438.9113
 20
-22.9321
 30
0.0
  0
VERTEX
  5
422
  8
LAYER_1
 62
   242
 10
-446.4113
 20
-22.9321
 30
0.0
  0
VERTEX
  5
423
  8
LAYER_1
 62
   242
 10
-446.4113
 20
-19.4321
 30
0.0
  0
VERTEX
  5
424
  8
LAYER_1
 62
   242
 10
-456.4113
 20
-19.4321
 30
0.0
  0
VERTEX
  5
425
  8
LAYER_1
 62
   242
 10
-456.4113
 20
-22.9321
 30
0.0
  0
VERTEX
  5
426
  8
LAYER_1
 62
   242
 10
-463.9113
 20
-22.9321
 30
0.0
  0
VERTEX
  5
427
  8
LAYER_1
 62
   242
 10
-463.9113
 20
-38.9321
 30
0.0
  0
VERTEX
  5
428
  8
LAYER_1
 62
   242
 10
-411.374
 20
-82.9321
 30
0.0
  0
VERTEX
  5
429
  8
LAYER_1
 62
   242
 10
-333.9114
 20
-82.9321
 30
0.0
  0
VERTEX
  5
42A
  8
LAYER_1
 62
   242
 10
-313.9114
 20
-102.9321
 30
0.0
  0
VERTEX
  5
42B
  8
LAYER_1
 62
   242
 10
-313.9114
 20
-164.557
 30
0.0
  0
VERTEX
  5
42C
  8
LAYER_1
 62
   242
 10
-303.9114
 20
-172.9321
 30
0.0
  0
VERTEX
  5
42D
  8
LAYER_1
 62
   242
 10
-273.9114
 20
-172.9321
 30
0.0
  0
VERTEX
  5
42E
  8
LAYER_1
 62
   242
 10
-263.9114
 20
-164.5571
 30
0.0
  0
VERTEX
  5
42F
  8
LAYER_1
 62
   242
 10
-263.9114
 20
-102.9321
 30
0.0
  0
VERTEX
  5
430
  8
LAYER_1
 62
   242
 10
-243.9114
 20
-82.9321
 30
0.0
  0
VERTEX
  5
431
  8
LAYER_1
 62
   242
 10
-166.4487
 20
-82.9321
 30
0.0
  0
VERTEX
  5
432
  8
LAYER_1
 62
   242
 10
-113.9113
 20
-38.9321
 30
0.0
  0
VERTEX
  5
433
  8
LAYER_1
 62
   242
 10
-113.9113
 20
-22.9321
 30
0.0
  0
SEQEND
  5
434
  8
LAYER_1
 62
   242
  0
POLYLINE
  5
6F
  8
LAYER_1
 62
   242
 66
     1
 10
0.0
 20
0.0
 30
0.0
 70
     1
  0
VERTEX
  5
435
  8
LAYER_1
 62
   242
 10
-288.9114
 20
-114.6821
 30
0.0
  0
VERTEX
  5
436
  8
LAYER_1
 62
   242
 10
-288.5083
 20
-114.7227
 30
0.0
  0
VERTEX
  5
437
  8
LAYER_1
 62
   242
 10
-288.1329
 20
-114.8393
 30
0.0
  0
VERTEX
  5
438
  8
LAYER_1
 62
   242
 10
-287.7932
 20
-115.0237
 30
0.0
  0
VERTEX
  5
439
  8
LAYER_1
 62
   242
 10
-287.4972
 20
-115.2679
 30
0.0
  0
VERTEX
  5
43A
  8
LAYER_1
 62
   242
 10
-287.253
 20
-115.5639
 30
0.0
  0
VERTEX
  5
43B
  8
LAYER_1
 62
   242
 10
-287.0686
 20
-115.9036
 30
0.0
  0
VERTEX
  5
43C
  8
LAYER_1
 62
   242
 10
-286.952
 20
-116.279
 30
0.0
  0
VERTEX
  5
43D
  8
LAYER_1
 62
   242
 10
-286.9114
 20
-116.6821
 30
0.0
  0
VERTEX
  5
43E
  8
LAYER_1
 62
   242
 10
-286.952
 20
-117.0852
 30
0.0
  0
VERTEX
  5
43F
  8
LAYER_1
 62
   242
 10
-287.0686
 20
-117.4606
 30
0.0
  0
VERTEX
  5
440
  8
LAYER_1
 62
   242
 10
-287.253
 20
-117.8003
 30
0.0
  0
VERTEX
  5
441
  8
LAYER_1
 62
   242
 10
-287.4972
 20
-118.0963
 30
0.0
  0
VERTEX
  5
442
  8
LAYER_1
 62
   242
 10
-287.7932
 20
-118.3405
 30
0.0
  0
VERTEX
  5
443
  8
LAYER_1
 62
   242
 10
-288.1329
 20
-118.5249
 30
0.0
  0
VERTEX
  5
444
  8
LAYER_1
 62
   242
 10
-288.5083
 20
-118.6415
 30
0.0
  0
VERTEX
  5
445
  8
LAYER_1
 62
   242
 10
-288.9114
 20
-118.6821
 30
0.0
  0
VERTEX
  5
446
  8
LAYER_1
 62
   242
 10
-289.3145
 20
-118.6415
 30
0.0
  0
VERTEX
  5
447
  8
LAYER_1
 62
   242
 10
-289.6899
 20
-118.5249
 30
0.0
  0
VERTEX
  5
448
  8
LAYER_1
 62
   242
 10
-290.0296
 20
-118.3405
 30
0.0
  0
VERTEX
  5
449
  8
LAYER_1
 62
   242
 10
-290.3256
 20
-118.0963
 30
0.0
  0
VERTEX
  5
44A
  8
LAYER_1
 62
   242
 10
-290.5698
 20
-117.8003
 30
0.0
  0
VERTEX
  5
44B
  8
LAYER_1
 62
   242
 10
-290.7542
 20
-117.4606
 30
0.0
  0
VERTEX
  5
44C
  8
LAYER_1
 62
   242
 10
-290.8708
 20
-117.0852
 30
0.0
  0
VERTEX
  5
44D
  8
LAYER_1
 62
   242
 10
-290.9114
 20
-116.6821
 30
0.0
  0
VERTEX
  5
44E
  8
LAYER_1
 62
   242
 10
-290.8708
 20
-116.279
 30
0.0
  0
VERTEX
  5
44F
  8
LAYER_1
 62
   242
 10
-290.7542
 20
-115.9036
 30
0.0
  0
VERTEX
  5
450
  8
LAYER_1
 62
   242
 10
-290.5698
 20
-115.5639
 30
0.0
  0
VERTEX
  5
451
  8
LAYER_1
 62
   242
 10
-290.3256
 20
-115.2679
 30
0.0
  0
VERTEX
  5
452
  8
LAYER_1
 62
   242
 10
-290.0296
 20
-115.0237
 30
0.0
  0
VERTEX
  5
453
  8
LAYER_1
 62
   242
 10
-289.6899
 20
-114.8393
 30
0.0
  0
VERTEX
  5
454
  8
LAYER_1
 62
   242
 10
-289.3145
 20
-114.7227
 30
0.0
  0
VERTEX
  5
455
  8
LAYER_1
 62
   242
 10
-288.9114
 20
-114.6821
 30
0.0
  0
SEQEND
  5
456
  8
LAYER_1
 62
   242
  0
POLYLINE
  5
70
  8
LAYER_1
 62
   242
 66
     1
 10
0.0
 20
0.0
 30
0.0
 70
     1
  0
VERTEX
  5
457
  8
LAYER_1
 62
   242
 10
-288.9114
 20
-152.1821
 30
0.0
  0
VERTEX
  5
458
  8
LAYER_1
 62
   242
 10
-288.5083
 20
-152.2227
 30
0.0
  0
VERTEX
  5
459
  8
LAYER_1
 62
   242
 10
-288.1329
 20
-152.3393
 30
0.0
  0
VERTEX
  5
45A
  8
LAYER_1
 62
   242
 10
-287.7932
 20
-152.5237
 30
0.0
  0
VERTEX
  5
45B
  8
LAYER_1
 62
   242
 10
-287.4972
 20
-152.7679
 30
0.0
  0
VERTEX
  5
45C
  8
LAYER_1
 62
   242
 10
-287.253
 20
-153.0639
 30
0.0
  0
VERTEX
  5
45D
  8
LAYER_1
 62
   242
 10
-287.0686
 20
-153.4036
 30
0.0
  0
VERTEX
  5
45E
  8
LAYER_1
 62
   242
 10
-286.952
 20
-153.779
 30
0.0
  0
VERTEX
  5
45F
  8
LAYER_1
 62
   242
 10
-286.9114
 20
-154.1821
 30
0.0
  0
VERTEX
  5
460
  8
LAYER_1
 62
   242
 10
-286.952
 20
-154.5852
 30
0.0
  0
VERTEX
  5
461
  8
LAYER_1
 62
   242
 10
-287.0686
 20
-154.9606
 30
0.0
  0
VERTEX
  5
462
  8
LAYER_1
 62
   242
 10
-287.253
 20
-155.3003
 30
0.0
  0
VERTEX
  5
463
  8
LAYER_1
 62
   242
 10
-287.4972
 20
-155.5963
 30
0.0
  0
VERTEX
  5
464
  8
LAYER_1
 62
   242
 10
-287.7932
 20
-155.8405
 30
0.0
  0
VERTEX
  5
465
  8
LAYER_1
 62
   242
 10
-288.1329
 20
-156.0249
 30
0.0
  0
VERTEX
  5
466
  8
LAYER_1
 62
   242
 10
-288.5083
 20
-156.1415
 30
0.0
  0
VERTEX
  5
467
  8
LAYER_1
 62
   242
 10
-288.9114
 20
-156.1821
 30
0.0
  0
VERTEX
  5
468
  8
LAYER_1
 62
   242
 10
-289.3145
 20
-156.1415
 30
0.0
  0
VERTEX
  5
469
  8
LAYER_1
 62
   242
 10
-289.6899
 20
-156.0249
 30
0.0
  0
VERTEX
  5
46A
  8
LAYER_1
 62
   242
 10
-290.0296
 20
-155.8405
 30
0.0
  0
VERTEX
  5
46B
  8
LAYER_1
 62
   242
 10
-290.3256
 20
-155.5963
 30
0.0
  0
VERTEX
  5
46C
  8
LAYER_1
 62
   242
 10
-290.5698
 20
-155.3003
 30
0.0
  0
VERTEX
  5
46D
  8
LAYER_1
 62
   242
 10
-290.7542
 20
-154.9606
 30
0.0
  0
VERTEX
  5
46E
  8
LAYER_1
 62
   242
 10
-290.8708
 20
-154.5852
 30
0.0
  0
VERTEX
  5
46F
  8
LAYER_1
 62
   242
 10
-290.9114
 20
-154.1821
 30
0.0
  0
VERTEX
  5
470
  8
LAYER_1
 62
   242
 10
-290.8708
 20
-153.779
 30
0.0
  0
VERTEX
  5
471
  8
LAYER_1
 62
   242
 10
-290.7542
 20
-153.4036
 30
0.0
  0
VERTEX
  5
472
  8
LAYER_1
 62
   242
 10
-290.5698
 20
-153.0639
 30
0.0
  0
VERTEX
  5
473
  8
LAYER_1
 62
   242
 10
-290.3256
 20
-152.7679
 30
0.0
  0
VERTEX
  5
474
  8
LAYER_1
 62
   242
 10
-290.0296
 20
-152.5237
 30
0.0
  0
VERTEX
  5
475
  8
LAYER_1
 62
   242
 10
-289.6899
 20
-152.3393
 30
0.0
  0
VERTEX
  5
476
  8
LAYER_1
 62
   242
 10
-289.3145
 20
-152.2227
 30
0.0
  0
VERTEX
  5
477
  8
LAYER_1
 62
   242
 10
-288.9114
 20
-152.1821
 30
0.0
  0
SEQEND
  5
478
  8
LAYER_1
 62
   242
  0
POLYLINE
  5
71
  8
LAYER_1
 62
   242
 66
     1
 10
0.0
 20
0.0
 30
0.0
 70
     1
  0
VERTEX
  5
479
  8
LAYER_1
 62
   242
 10
-288.9114
 20
-77.1821
 30
0.0
  0
VERTEX
  5
47A
  8
LAYER_1
 62
   242
 10
-288.5083
 20
-77.2227
 30
0.0
  0
VERTEX
  5
47B
  8
LAYER_1
 62
   242
 10
-288.1329
 20
-77.3393
 30
0.0
  0
VERTEX
  5
47C
  8
LAYER_1
 62
   242
 10
-287.7932
 20
-77.5237
 30
0.0
  0
VERTEX
  5
47D
  8
LAYER_1
 62
   242
 10
-287.4972
 20
-77.7679
 30
0.0
  0
VERTEX
  5
47E
  8
LAYER_1
 62
   242
 10
-287.253
 20
-78.0639
 30
0.0
  0
VERTEX
  5
47F
  8
LAYER_1
 62
   242
 10
-287.0686
 20
-78.4036
 30
0.0
  0
VERTEX
  5
480
  8
LAYER_1
 62
   242
 10
-286.952
 20
-78.779
 30
0.0
  0
VERTEX
  5
481
  8
LAYER_1
 62
   242
 10
-286.9114
 20
-79.1821
 30
0.0
  0
VERTEX
  5
482
  8
LAYER_1
 62
   242
 10
-286.952
 20
-79.5852
 30
0.0
  0
VERTEX
  5
483
  8
LAYER_1
 62
   242
 10
-287.0686
 20
-79.9606
 30
0.0
  0
VERTEX
  5
484
  8
LAYER_1
 62
   242
 10
-287.253
 20
-80.3003
 30
0.0
  0
VERTEX
  5
485
  8
LAYER_1
 62
   242
 10
-287.4972
 20
-80.5963
 30
0.0
  0
VERTEX
  5
486
  8
LAYER_1
 62
   242
 10
-287.7932
 20
-80.8405
 30
0.0
  0
VERTEX
  5
487
  8
LAYER_1
 62
   242
 10
-288.1329
 20
-81.0249
 30
0.0
  0
VERTEX
  5
488
  8
LAYER_1
 62
   242
 10
-288.5083
 20
-81.1415
 30
0.0
  0
VERTEX
  5
489
  8
LAYER_1
 62
   242
 10
-288.9114
 20
-81.1821
 30
0.0
  0
VERTEX
  5
48A
  8
LAYER_1
 62
   242
 10
-289.3145
 20
-81.1415
 30
0.0
  0
VERTEX
  5
48B
  8
LAYER_1
 62
   242
 10
-289.6899
 20
-81.0249
 30
0.0
  0
VERTEX
  5
48C
  8
LAYER_1
 62
   242
 10
-290.0296
 20
-80.8405
 30
0.0
  0
VERTEX
  5
48D
  8
LAYER_1
 62
   242
 10
-290.3256
 20
-80.5963
 30
0.0
  0
VERTEX
  5
48E
  8
LAYER_1
 62
   242
 10
-290.5698
 20
-80.3003
 30
0.0
  0
VERTEX
  5
48F
  8
LAYER_1
 62
   242
 10
-290.7542
 20
-79.9606
 30
0.0
  0
VERTEX
  5
490
  8
LAYER_1
 62
   242
 10
-290.8708
 20
-79.5852
 30
0.0
  0
VERTEX
  5
491
  8
LAYER_1
 62
   242
 10
-290.9114
 20
-79.1821
 30
0.0
  0
VERTEX
  5
492
  8
LAYER_1
 62
   242
 10
-290.8708
 20
-78.779
 30
0.0
  0
VERTEX
  5
493
  8
LAYER_1
 62
   242
 10
-290.7542
 20
-78.4036
 30
0.0
  0
VERTEX
  5
494
  8
LAYER_1
 62
   242
 10
-290.5698
 20
-78.0639
 30
0.0
  0
VERTEX
  5
495
  8
LAYER_1
 62
   242
 10
-290.3256
 20
-77.7679
 30
0.0
  0
VERTEX
  5
496
  8
LAYER_1
 62
   242
 10
-290.0296
 20
-77.5237
 30
0.0
  0
VERTEX
  5
497
  8
LAYER_1
 62
   242
 10
-289.6899
 20
-77.3393
 30
0.0
  0
VERTEX
  5
498
  8
LAYER_1
 62
   242
 10
-289.3145
 20
-77.2227
 30
0.0
  0
VERTEX
  5
499
  8
LAYER_1
 62
   242
 10
-288.9114
 20
-77.1821
 30
0.0
  0
SEQEND
  5
49A
  8
LAYER_1
 62
   242
  0
POLYLINE
  5
72
  8
LAYER_1
 62
   242
 66
     1
 10
0.0
 20
0.0
 30
0.0
 70
     1
  0
VERTEX
  5
49B
  8
LAYER_1
 62
   242
 10
-288.9114
 20
-39.6821
 30
0.0
  0
VERTEX
  5
49C
  8
LAYER_1
 62
   242
 10
-288.5083
 20
-39.7227
 30
0.0
  0
VERTEX
  5
49D
  8
LAYER_1
 62
   242
 10
-288.1329
 20
-39.8393
 30
0.0
  0
VERTEX
  5
49E
  8
LAYER_1
 62
   242
 10
-287.7932
 20
-40.0237
 30
0.0
  0
VERTEX
  5
49F
  8
LAYER_1
 62
   242
 10
-287.4972
 20
-40.2679
 30
0.0
  0
VERTEX
  5
4A0
  8
LAYER_1
 62
   242
 10
-287.253
 20
-40.5639
 30
0.0
  0
VERTEX
  5
4A1
  8
LAYER_1
 62
   242
 10
-287.0686
 20
-40.9036
 30
0.0
  0
VERTEX
  5
4A2
  8
LAYER_1
 62
   242
 10
-286.952
 20
-41.279
 30
0.0
  0
VERTEX
  5
4A3
  8
LAYER_1
 62
   242
 10
-286.9114
 20
-41.6821
 30
0.0
  0
VERTEX
  5
4A4
  8
LAYER_1
 62
   242
 10
-286.952
 20
-42.0852
 30
0.0
  0
VERTEX
  5
4A5
  8
LAYER_1
 62
   242
 10
-287.0686
 20
-42.4606
 30
0.0
  0
VERTEX
  5
4A6
  8
LAYER_1
 62
   242
 10
-287.253
 20
-42.8003
 30
0.0
  0
VERTEX
  5
4A7
  8
LAYER_1
 62
   242
 10
-287.4972
 20
-43.0963
 30
0.0
  0
VERTEX
  5
4A8
  8
LAYER_1
 62
   242
 10
-287.7932
 20
-43.3405
 30
0.0
  0
VERTEX
  5
4A9
  8
LAYER_1
 62
   242
 10
-288.1329
 20
-43.5249
 30
0.0
  0
VERTEX
  5
4AA
  8
LAYER_1
 62
   242
 10
-288.5083
 20
-43.6415
 30
0.0
  0
VERTEX
  5
4AB
  8
LAYER_1
 62
   242
 10
-288.9114
 20
-43.6821
 30
0.0
  0
VERTEX
  5
4AC
  8
LAYER_1
 62
   242
 10
-289.3145
 20
-43.6415
 30
0.0
  0
VERTEX
  5
4AD
  8
LAYER_1
 62
   242
 10
-289.6899
 20
-43.5249
 30
0.0
  0
VERTEX
  5
4AE
  8
LAYER_1
 62
   242
 10
-290.0296
 20
-43.3405
 30
0.0
  0
VERTEX
  5
4AF
  8
LAYER_1
 62
   242
 10
-290.3256
 20
-43.0963
 30
0.0
  0
VERTEX
  5
4B0
  8
LAYER_1
 62
   242
 10
-290.5698
 20
-42.8003
 30
0.0
  0
VERTEX
  5
4B1
  8
LAYER_1
 62
   242
 10
-290.7542
 20
-42.4606
 30
0.0
  0
VERTEX
  5
4B2
  8
LAYER_1
 62
   242
 10
-290.8708
 20
-42.0852
 30
0.0
  0
VERTEX
  5
4B3
  8
LAYER_1
 62
   242
 10
-290.9114
 20
-41.6821
 30
0.0
  0
VERTEX
  5
4B4
  8
LAYER_1
 62
   242
 10
-290.8708
 20
-41.279
 30
0.0
  0
VERTEX
  5
4B5
  8
LAYER_1
 62
   242
 10
-290.7542
 20
-40.9036
 30
0.0
  0
VERTEX
  5
4B6
  8
LAYER_1
 62
   242
 10
-290.5698
 20
-40.5639
 30
0.0
  0
VERTEX
  5
4B7
  8
LAYER_1
 62
   242
 10
-290.3256
 20
-40.2679
 30
0.0
  0
VERTEX
  5
4B8
  8
LAYER_1
 62
   242
 10
-290.0296
 20
-40.0237
 30
0.0
  0
VERTEX
  5
4B9
  8
LAYER_1
 62
   242
 10
-289.6899
 20
-39.8393
 30
0.0
  0
VERTEX
  5
4BA
  8
LAYER_1
 62
   242
 10
-289.3145
 20
-39.7227
 30
0.0
  0
VERTEX
  5
4BB
  8
LAYER_1
 62
   242
 10
-288.9114
 20
-39.6821
 30
0.0
  0
SEQEND
  5
4BC
  8
LAYER_1
 62
   242
  0
ENDSEC
  0
EOF
