M48
INCH,TZ
T1C0.025
T2C0.032
T3C0.032
T4C0.039
T5C0.040
T6C0.047
T7C0.063
T8C0.118
%
G90
G05
T1
X05300Y-02605
X05545Y-02370
X05550Y-02300
X05650Y-02300
X06000Y-02630
X06015Y-02480
X06080Y-02440
X06095Y-02230
X06235Y-02555
X06505Y-02265
X06535Y-02125
X06565Y-02640
X06610Y-02260
X06790Y-02515
X07085Y-01810
X07205Y-02695
X07370Y-01500
X07370Y-03215
X07430Y-01955
X07520Y-01740
T2
X04500Y-01250
X04500Y-01375
X04800Y-01250
X04800Y-01375
X05575Y-02475
X05575Y-02575
X05575Y-02675
X05575Y-02775
X05575Y-02875
X05575Y-02975
X05575Y-03075
X05575Y-03175
X05675Y-01845
X05675Y-02145
X05810Y-01845
X05810Y-02145
X05875Y-02475
X05875Y-02575
X05875Y-02675
X05875Y-02775
X05875Y-02875
X05875Y-02975
X05875Y-03075
X05875Y-03175
X06040Y-02770
X06040Y-02870
X06150Y-03010
X06250Y-02910
X06250Y-03010
X06360Y-01910
X06430Y-01760
X06460Y-01910
X06490Y-02910
X06490Y-03010
X06590Y-01910
X06685Y-02550
X06685Y-02650
X06690Y-01910
X06855Y-01430
X06855Y-01630
X06865Y-01835
X06880Y-03020
X06960Y-02440
X06965Y-01835
X06985Y-01640
X07260Y-02440
X07285Y-01640
X07310Y-02690
X07310Y-02990
X07415Y-02690
X07415Y-02990
X07425Y-01225
X07625Y-01225
X07640Y-01695
X07640Y-01795
X07640Y-01895
X07640Y-01995
X07640Y-02095
X07640Y-02195
X07640Y-02295
X07640Y-02395
X07640Y-02565
X07640Y-02865
T3
X04350Y-01225
X04350Y-01325
X04350Y-01425
X04350Y-01525
X06060Y-02040
X06060Y-02340
X06160Y-02040
X06160Y-02340
X06260Y-02040
X06260Y-02340
X06360Y-02040
X06360Y-02340
X06460Y-02040
X06460Y-02340
X06560Y-02040
X06560Y-02340
X06630Y-01760
X06660Y-02040
X06660Y-02340
X06760Y-02040
X06760Y-02340
X06860Y-02040
X06860Y-02340
X06890Y-02550
X06890Y-02850
X06960Y-02040
X06960Y-02340
X06990Y-02550
X06990Y-02850
X07000Y-03020
X07060Y-02040
X07060Y-02340
X07090Y-02550
X07090Y-02850
X07160Y-02040
X07160Y-02340
X07190Y-02550
X07190Y-02850
X07260Y-02040
X07260Y-02340
X07325Y-02505
X07360Y-02040
X07360Y-02340
X07425Y-01350
X07425Y-01450
X07425Y-01550
X07425Y-01650
X07425Y-01750
X07425Y-01850
X07425Y-02505
T4
X05015Y-01575
X05310Y-02175
X05805Y-01575
X06265Y-02615
X06265Y-02715
X06365Y-02615
X06365Y-02715
X06465Y-02615
X06465Y-02715
T5
X05700Y-01290
X05800Y-01290
X05900Y-01290
X06000Y-01290
X06060Y-03190
X06100Y-01290
X06160Y-03190
X06200Y-01290
X06260Y-03190
X06300Y-01290
X06360Y-03190
X06400Y-01290
X06460Y-03190
X06560Y-01290
X06560Y-03190
X06660Y-01290
X06760Y-01290
X06760Y-03190
X06860Y-01290
X06860Y-03190
X06960Y-01290
X06960Y-03190
X07060Y-01290
X07060Y-03190
X07160Y-01290
X07160Y-03190
X07260Y-01290
X07260Y-03190
T6
X06705Y-02795
X06705Y-03035
X07020Y-01475
X07270Y-01475
T7
X05310Y-03005
T8
X04875Y-01975
X07675Y-01475
X07675Y-03200
T2
X04475Y-01725G85X04475Y-01795
G05
X04620Y-01935G85X04550Y-01935
G05
X04715Y-01716G85X04715Y-01804
G05
T0
M30
